<svg width="596" height="598" viewBox="0 0 596 598" fill="none" xmlns="http://www.w3.org/2000/svg">
<g opacity="0.15">
<path opacity="0.6" d="M277.243 402.24L317.262 377.39L314.328 371.719L275.438 398.173L277.243 402.24Z" fill="#334F57"/>
<path opacity="0.2" d="M275.439 398.173L217.428 550.044L280.451 572.858L314.329 371.719L275.439 398.173Z" fill="url(#paint0_linear_3511_1750)"/>
<path opacity="0.8" d="M280.451 572.858L217.428 550.044L220.362 555.714L283.386 578.528L280.451 572.858Z" fill="url(#paint1_linear_3511_1750)"/>
<path opacity="0.8" d="M314.328 371.719L280.45 572.858L283.386 578.528L317.262 377.39L314.328 371.719Z" fill="url(#paint2_linear_3511_1750)"/>
<path opacity="0.3" d="M277.244 402.24L275.439 398.173L217.428 550.044L220.362 555.714L277.244 402.24Z" fill="#334F57"/>
<path opacity="0.3" d="M277.242 402.24L233.731 519.64L278.59 403.21L312.918 380.086L277.242 402.24Z" fill="white"/>
<path opacity="0.7" d="M275.439 398.173L217.428 550.044L276.256 399.757L314.329 371.719L275.439 398.173Z" fill="white"/>
<path opacity="0.7" d="M279.121 569.924L217.428 550.044L280.451 572.858L314.329 371.719L279.121 569.924Z" fill="white"/>
<path opacity="0.2" d="M310.019 397.307L314.328 371.719L317.262 377.39L312.865 403.502C311.917 401.437 310.977 399.368 310.019 397.307ZM287.385 554.786L293.552 518.167C292.56 516.342 291.571 514.514 290.586 512.683L284.448 549.133C285.418 551.022 286.403 552.904 287.385 554.786ZM300.484 477.012L307.883 433.079C307.012 430.595 306.138 428.111 305.247 425.632L297.621 470.909C298.571 472.945 299.524 474.979 300.484 477.012Z" fill="white"/>
<path opacity="0.2" d="M299.673 458.731L314.328 371.719L275.438 398.173L266.027 422.809L299.673 458.731Z" fill="url(#paint3_linear_3511_1750)"/>
<path opacity="0.4" d="M133.583 462C164.301 465.795 180.634 473.575 188.289 483.04C188.176 481.636 187.952 480.623 187.569 480.15C179.917 470.681 162.578 461.832 131.85 458.036L133.583 462Z" fill="url(#paint4_linear_3511_1750)"/>
<path opacity="0.2" d="M82.6914 511.197C90.4331 495.863 120.467 481.028 131.851 458.036C162.579 461.832 179.918 470.68 187.57 480.15C191.252 484.707 180.874 536.934 186.519 547.498C179.407 560.865 158.518 557.022 157.401 557.814C156.284 558.605 122.193 526.494 82.6914 511.197Z" fill="url(#paint5_linear_3511_1750)"/>
<path opacity="0.8" d="M157.401 557.814C156.284 558.606 122.193 526.494 82.6914 511.197C82.6914 511.197 82.893 513.665 82.6914 515.575C122.193 530.872 156.284 562.984 157.401 562.192V557.814Z" fill="url(#paint6_linear_3511_1750)"/>
<path opacity="0.8" d="M186.521 547.498C179.409 560.865 158.52 557.022 157.403 557.814V562.192C158.52 561.4 179.409 565.244 186.521 551.876C186.322 551.504 186.681 547.968 186.521 547.498Z" fill="url(#paint7_linear_3511_1750)"/>
<path opacity="0.9" d="M186.521 547.498C179.409 560.865 158.52 557.022 157.403 557.814C157.403 557.814 176.273 561.294 185.477 550.405C185.769 550.06 186.521 551.876 186.521 551.876C186.322 551.504 186.681 547.968 186.521 547.498Z" fill="white"/>
<path opacity="0.5" d="M133.584 462L131.851 458.036C120.467 481.028 90.4331 495.863 82.6914 511.197C82.766 512.629 82.6914 515.575 82.6914 515.575C92.9847 501.378 123.065 483.243 133.584 462Z" fill="url(#paint8_linear_3511_1750)"/>
<path opacity="0.7" d="M82.6914 511.197C87.1871 502.294 99.198 493.558 110.709 483.297C102.978 491.58 88.9406 502.245 84.2226 510.552C113.448 522.564 142.213 544.23 156.941 556.242C158.792 557.751 179.609 556.804 186.521 547.498C179.409 560.865 158.52 557.022 157.403 557.814C156.284 558.605 122.193 526.494 82.6914 511.197Z" fill="white"/>
<path opacity="0.5" d="M187.571 480.15C189.042 505.838 180.269 527.588 184.844 547.458C184.547 548.383 184.095 549.218 183.539 549.987L182.459 548.224L181.297 547.401L175.611 535.502L181.034 547.429L181.936 548.422L182.374 550.022L180.452 548.111L177.893 547.005L176.235 544.848L168.965 529.946L175.945 544.933L177.632 547.429L179.725 548.479L181.015 550.758L180.614 550.409L177.944 548.739L175.89 546.066L177.669 549.073L180.134 550.943L180.228 552.403L179.346 551.456L177.193 550.463L175.564 548.306L174.633 544.788C174.633 544.788 169.654 536.118 169.567 536.089C169.48 536.061 174.517 544.93 174.517 544.93L175.243 548.647L176.813 550.804L179.111 551.91L178.97 553.773C170.746 558.186 157.399 557.811 157.399 557.811C157.399 557.811 171.155 559.712 180.431 553.901L181.234 553.378C183.352 551.902 185.194 549.983 186.518 547.495C180.874 536.934 191.253 484.706 187.571 480.15Z" fill="white"/>
<g opacity="0.1">
<path d="M173.749 469.503C164.139 464.485 150.452 460.334 131.851 458.036C120.467 481.028 90.4331 495.863 82.6914 511.197C93.9692 515.565 104.801 521.303 114.556 527.255L173.749 469.503Z" fill="white"/>
</g>
<path opacity="0.2" d="M104.314 521.344C101.801 519.974 99.2437 518.636 96.6396 517.354C97.4819 519.208 98.2979 521.073 99.067 522.952C101.619 524.252 104.12 525.601 106.577 526.976C105.813 525.102 105.055 523.226 104.314 521.344Z" fill="white"/>
<path opacity="0.2" d="M137.694 542.93C135.128 541.032 132.368 539.035 129.422 536.984C130.288 539.049 131.156 541.114 132.008 543.186C135.128 545.402 138.009 547.53 140.646 549.52C139.637 547.336 138.627 545.143 137.694 542.93Z" fill="white"/>
<path opacity="0.4" d="M12.0532 12.7466L143.238 35.529L141.139 41.2341L12.0532 20.6717V12.7466Z" fill="url(#paint9_linear_3511_1750)"/>
<path opacity="0.4" d="M12.0532 12.7466L143.238 35.529L281.998 198.249L128.693 120.117L12.0532 12.7466Z" fill="url(#paint10_linear_3511_1750)"/>
<path opacity="0.7" d="M128.693 120.117L12.0532 12.7466V20.6717L128.693 128.044V120.117Z" fill="url(#paint11_linear_3511_1750)"/>
<path opacity="0.2" d="M143.237 35.5291L281.998 198.249L284.435 207.033L141.139 41.2341L143.237 35.5291Z" fill="url(#paint12_linear_3511_1750)"/>
<path opacity="0.6" d="M128.692 120.117V128.044L284.434 207.033L281.997 198.249L128.692 120.117Z" fill="url(#paint13_linear_3511_1750)"/>
<g opacity="0.2">
<path d="M153.284 47.3096L143.238 35.529L12.0532 12.7466L102.948 96.4187L153.284 47.3096Z" fill="white"/>
</g>
<g opacity="0.8">
<path d="M12.0527 12.7466L131.327 117.903L277.891 195.092L143.237 35.529L281.997 198.249L128.692 120.117L12.0527 12.7466Z" fill="white"/>
</g>
<path opacity="0.1" d="M262.381 195.85L245.144 187.107C243.6 183.782 242.063 180.453 240.539 177.121L257.461 185.745C259.136 189.13 260.858 192.486 262.381 195.85ZM220.672 166.996L172.056 142.219C173.968 145.819 175.917 149.398 177.845 152.975L225.632 177.211C223.959 173.815 222.308 170.408 220.672 166.996ZM166.311 139.291L146.239 129.061C148.172 132.707 150.143 136.334 152.149 139.94L172.004 150.01C170.095 146.441 168.176 142.878 166.311 139.291Z" fill="white"/>
<g opacity="0.2">
<path d="M278.839 196.943L282.024 204.142L128.69 128.043L284.432 207.033L281.995 198.248L278.839 196.943Z" fill="white"/>
</g>
<path opacity="0.8" d="M199.068 294.043L52.8298 301.138L50.2686 295.912L196.506 288.816L199.068 294.043Z" fill="url(#paint14_linear_3511_1750)"/>
<path opacity="0.2" d="M97.2216 254.38L150.116 255.741L199.068 294.043L196.506 288.816L147.553 250.514L94.6603 249.153L50.2686 295.912L52.8298 301.139L97.2216 254.38Z" fill="url(#paint15_linear_3511_1750)"/>
<path opacity="0.2" d="M196.506 288.817L50.2686 295.912L94.6603 249.153L147.553 250.514L196.506 288.817Z" fill="url(#paint16_linear_3511_1750)"/>
<g opacity="0.3">
<path d="M97.5763 255.016L52.8311 301.139L97.2228 254.38L94.6616 249.153L98.0154 254.4L150.117 255.741L97.5763 255.016Z" fill="white"/>
</g>
<path opacity="0.5" d="M97.2219 254.38L150.116 255.741L147.554 250.514L94.6606 249.153L97.2219 254.38Z" fill="#355057"/>
<g opacity="0.8">
<path d="M196.506 288.816L50.2686 295.912L193.665 287.795L147.553 250.514L196.506 288.816Z" fill="white"/>
</g>
<g opacity="0.3">
<path d="M199.069 294.043L195.794 290.227L154.042 290.877L196.506 288.816L199.069 294.043Z" fill="white"/>
</g>
<path opacity="0.1" d="M97.2425 298.985L75.6382 300.033C73.1736 298.381 70.7187 296.716 68.2734 295.039L91.6519 293.905C93.5007 295.613 95.3633 297.309 97.2425 298.985ZM116.512 292.698L101.782 293.412C103.599 295.112 105.423 296.804 107.247 298.497L121.563 297.802C119.888 296.094 118.203 294.392 116.512 292.698ZM151.029 291.023L127.42 292.168C128.963 293.948 130.602 295.646 132.314 297.282L156.024 296.131C154.359 294.429 152.694 292.726 151.029 291.023ZM175.585 289.832L162.26 290.479C163.69 292.222 165.151 293.938 166.657 295.617L180.966 294.923C179.154 293.24 177.326 291.571 175.585 289.832Z" fill="white"/>
<path opacity="0.2" d="M142.272 250.378L94.6603 249.153L50.2686 295.912L100.08 293.495L142.272 250.378Z" fill="url(#paint17_linear_3511_1750)"/>
<path opacity="0.2" d="M568.735 425.977L566.231 422.879L315.014 524.835L316.261 531.238L568.735 425.977Z" fill="url(#paint18_linear_3511_1750)"/>
<path opacity="0.2" d="M315.014 524.835L566.231 422.879L444.956 577.753L315.014 524.835Z" fill="url(#paint19_linear_3511_1750)"/>
<path opacity="0.8" d="M566.23 422.879L444.956 577.753L445.062 583.691L568.735 425.977L566.23 422.879Z" fill="url(#paint20_linear_3511_1750)"/>
<path opacity="0.8" d="M444.956 577.753L315.014 524.835L316.261 531.238L321.066 533.196C322.891 532.862 325.016 533.046 327.107 533.842C329.388 534.713 331.194 536.144 332.286 537.764L445.062 583.691L444.956 577.753Z" fill="url(#paint21_linear_3511_1750)"/>
<path opacity="0.7" d="M315.014 524.835L566.231 422.879L318.94 524.574L444.956 577.753L315.014 524.835Z" fill="white"/>
<path opacity="0.3" d="M444.956 577.753L315.014 524.835L315.653 528.121L444.956 577.753Z" fill="white"/>
<path opacity="0.5" d="M444.272 577.474L566.23 422.879L444.955 577.753L444.272 577.474Z" fill="white"/>
<path opacity="0.2" d="M402.106 560.302L369.757 547.129C370.453 549.373 371.139 551.622 371.83 553.867L404.647 567.232C403.774 564.942 402.933 562.628 402.106 560.302Z" fill="white"/>
<path opacity="0.2" d="M365.739 545.494L340.092 535.049C341.094 537.426 342.101 539.801 343.111 542.174L367.832 552.241C367.139 549.99 366.44 547.742 365.739 545.494Z" fill="white"/>
<path opacity="0.1" d="M544.297 450.887L566.229 422.879L568.734 425.977L543.816 457.754C543.969 455.464 544.134 453.176 544.297 450.887ZM462.915 560.925L472.774 548.351C472.598 546.535 472.421 544.719 472.244 542.903L463.077 554.609C463.002 556.714 462.952 558.819 462.915 560.925ZM502.38 510.596L516.36 492.769C516.447 490.58 516.538 488.391 516.644 486.203L502.587 504.154C502.518 506.302 502.445 508.449 502.38 510.596Z" fill="white"/>
<path opacity="0.2" d="M484.96 455.86C487.498 476.138 490.106 496.408 492.784 516.669L566.227 422.877L484.96 455.86Z" fill="url(#paint22_linear_3511_1750)"/>
<path opacity="0.3" d="M530.781 32.3322C524.567 37.7206 481.765 46.7019 481.765 46.7019L434.13 107.771L433.286 112.708L483.605 51.0652C483.605 51.0652 530.771 41.2056 536.984 35.8172C537.143 35.5868 537.303 35.3686 537.462 35.1409L535.468 42.379L531.412 51.2201L535.899 42.8841L539.769 31.9617C554.344 12.6117 569.517 4.93718 569.517 4.93718L570.361 0C570.361 0 550.801 13.4725 530.781 32.3322Z" fill="white"/>
<path opacity="0.2" d="M434.131 107.771L481.766 46.702C481.766 46.702 524.569 37.7207 530.782 32.3323C550.803 13.4726 570.364 0.00146484 570.364 0.00146484C570.364 0.00146484 592.225 61.9689 592.225 77.2357C569.07 111.959 523.188 175.127 523.188 175.127C523.188 175.127 456.454 134.713 434.131 107.771Z" fill="url(#paint23_linear_3511_1750)"/>
<path opacity="0.6" d="M569.519 4.93718C569.519 4.93718 589.015 62.843 591.38 82.1714L592.224 77.2343C592.224 61.9674 570.363 0 570.363 0L569.519 4.93718Z" fill="url(#paint24_linear_3511_1750)"/>
<path opacity="0.6" d="M523.187 175.127C523.187 175.127 456.452 134.713 434.13 107.771L433.287 112.708C455.609 139.65 522.344 180.064 522.344 180.064C522.344 180.064 568.225 116.896 591.38 82.1728L592.224 77.2356C569.069 111.959 523.187 175.127 523.187 175.127Z" fill="url(#paint25_linear_3511_1750)"/>
<g opacity="0.4">
<path d="M523.188 175.126L522.345 180.064L592.225 77.2368C569.07 111.959 523.188 175.126 523.188 175.126Z" fill="white"/>
</g>
<path opacity="0.3" d="M483.607 51.065C483.607 51.065 530.772 41.2055 536.985 35.817L530.78 32.332C524.567 37.7205 481.765 46.7017 481.765 46.7017L483.607 51.065Z" fill="url(#paint26_linear_3511_1750)"/>
<g opacity="0.4">
<path d="M523.302 172.544L592.224 77.2356C569.069 111.959 522.344 180.062 522.344 180.062L523.187 175.125C514.239 169.915 498.115 159.662 481.612 147.932C481.612 147.932 500.193 160.292 523.302 172.544Z" fill="white"/>
</g>
<path opacity="0.7" d="M530.782 32.3322C524.569 37.7206 481.766 46.7019 481.766 46.7019C481.766 46.7019 515.413 40.8459 528.856 35.9721L528.468 37.5186L524.871 43.8163L520.449 50.009L517.6 57.7738L520.761 50.3647L525.266 43.7355L528.138 39.1405L527.16 44.2218L524.842 48.6848L527.525 44.172L528.921 37.9294L531.192 34.7152L530.23 40.3637L526.223 47.5209L524.413 52.9821L526.517 47.7041L531.022 40.1427C531.022 40.1427 532.785 33.7924 532.853 33.6779C543.139 21.2535 570.363 0 570.363 0C570.363 0 550.803 13.4725 530.782 32.3322Z" fill="white"/>
<path opacity="0.1" d="M528.085 75.1908C548.074 68.7839 568.158 62.6923 588.302 56.7932C582.01 33.022 570.363 0.00146484 570.363 0.00146484C570.363 0.00146484 550.802 13.4726 530.781 32.3323C524.568 37.7207 481.765 46.702 481.765 46.702L434.13 107.771C434.289 107.961 434.456 108.155 434.619 108.347C465.505 96.5803 496.553 85.2996 528.085 75.1908Z" fill="white"/>
<path opacity="0.2" d="M123.296 420.511L233.409 334.435L236.063 342.848L125.95 428.923L123.296 420.511Z" fill="url(#paint27_linear_3511_1750)"/>
<path opacity="0.6" d="M239.379 364.853L232.082 359.028L234.886 366.388L242.032 373.266L239.379 364.853Z" fill="url(#paint28_linear_3511_1750)"/>
<g opacity="0.8">
<path d="M234.885 366.388L236.062 342.848L233.408 334.435L232.081 359.028L234.885 366.388Z" fill="url(#paint29_linear_3511_1750)"/>
<path opacity="0.7" d="M239.379 364.853L204.221 439.927L206.875 448.34L242.032 373.266L239.379 364.853Z" fill="url(#paint30_linear_3511_1750)"/>
</g>
<path opacity="0.2" d="M123.296 420.511L233.409 334.435L232.082 359.028L239.379 364.853L204.222 439.927L123.296 420.511Z" fill="url(#paint31_linear_3511_1750)"/>
<path opacity="0.2" d="M123.296 420.511L233.409 334.435L232.082 359.028L239.379 364.853L204.222 439.927L123.296 420.511Z" fill="url(#paint32_linear_3511_1750)"/>
<path opacity="0.8" d="M204.222 439.927L123.296 420.511L125.95 428.923L206.875 448.339L204.222 439.927Z" fill="url(#paint33_linear_3511_1750)"/>
<path opacity="0.7" d="M123.295 420.511L233.408 334.435L232.082 359.028L239.379 364.853L230.019 360.241L230.664 340.722L123.295 420.511Z" fill="white"/>
<path opacity="0.4" d="M204.221 439.927L123.295 420.511L202.555 441.771L206.875 448.339L204.221 439.927Z" fill="white"/>
<path opacity="0.2" d="M239.379 364.853L204.221 439.927L206.875 448.339L206.581 439.637L239.379 364.853Z" fill="white"/>
<path opacity="0.3" d="M127.534 427.513L123.295 420.511L125.949 428.923L206.875 448.339L127.534 427.513Z" fill="#1B373D"/>
<path opacity="0.1" d="M187.804 370.084C196.479 385.383 206.045 400.149 216.064 414.64L239.379 364.852L232.081 359.027L233.408 334.434L187.804 370.084Z" fill="url(#paint34_linear_3511_1750)"/>
<path opacity="0.5" d="M379.413 115.581C379.412 115.584 379.41 115.588 379.409 115.591C377.451 134.656 327.846 163.066 327.846 163.066V172.819C327.846 172.819 376.656 141.672 379.455 123.586C379.455 123.586 379.728 117.403 379.413 115.581Z" fill="url(#paint35_linear_3511_1750)"/>
<path opacity="0.6" d="M327.847 163.066L283.12 155.232V164.987L327.847 172.819V163.066Z" fill="url(#paint36_linear_3511_1750)"/>
<path opacity="0.2" d="M322.113 105.683L362.253 75.4708C362.253 75.4708 376.542 96.3376 379.456 123.584C379.933 122.046 379.541 115.261 379.456 113.83C378.308 94.8087 362.253 65.7163 362.253 65.7163L322.113 95.9295L283.12 155.234V164.987L322.113 105.683Z" fill="url(#paint37_linear_3511_1750)"/>
<path opacity="0.3" d="M362.253 65.7178L322.112 95.9296V105.683L362.253 75.4722V65.7178Z" fill="url(#paint38_linear_3511_1750)"/>
<path opacity="0.2" d="M283.12 155.232L322.113 95.9281L362.253 65.7163C362.253 65.7163 378.31 94.8087 379.456 113.83C380.603 132.853 327.847 163.063 327.847 163.063L283.12 155.232Z" fill="url(#paint39_linear_3511_1750)"/>
<path opacity="0.6" d="M327.846 163.066L283.119 155.232L319.83 164.253L327.846 172.819V163.066Z" fill="url(#paint40_linear_3511_1750)"/>
<path opacity="0.7" d="M283.119 155.232L327.581 161.583C327.581 161.583 377.39 134.549 379.455 113.831C380.603 132.854 327.846 163.064 327.846 163.064L283.119 155.232Z" fill="white"/>
<path opacity="0.1" d="M335.476 109.218C339.298 122.807 343.672 136.268 348.883 149.416C363.444 138.983 380.105 124.612 379.456 113.831C378.309 94.8101 362.254 65.7178 362.254 65.7178L330.308 89.7598C331.891 96.2906 333.664 102.777 335.476 109.218Z" fill="url(#paint41_linear_3511_1750)"/>
<path opacity="0.7" d="M327.846 163.066L285.313 154.874L322.112 95.9297L283.119 155.232V164.987L284.869 157.079L327.846 163.066Z" fill="white"/>
<path opacity="0.5" d="M327.845 163.066V172.819C327.845 172.819 377.093 139.541 379.454 123.586C357.086 153.027 327.845 163.066 327.845 163.066Z" fill="url(#paint42_linear_3511_1750)"/>
<path opacity="0.3" d="M28.4249 204.385L26.4312 195.39L217.155 235.188L219.149 244.182L28.4249 204.385Z" fill="url(#paint43_linear_3511_1750)"/>
<path opacity="0.2" d="M28.4253 204.384L115.19 166.518L202.866 199.379L219.149 244.182L28.4253 204.384Z" fill="url(#paint44_linear_3511_1750)"/>
<path opacity="0.8" d="M113.196 157.524L26.4312 195.39L28.4249 204.384L115.19 166.518L113.196 157.524Z" fill="url(#paint45_linear_3511_1750)"/>
<path opacity="0.8" d="M217.155 235.188L200.872 190.384L202.866 199.378L219.149 244.182L217.155 235.188Z" fill="url(#paint46_linear_3511_1750)"/>
<path opacity="0.8" d="M115.19 166.518L202.866 199.379L200.872 190.384L113.196 157.524L115.19 166.518Z" fill="url(#paint47_linear_3511_1750)"/>
<path opacity="0.7" d="M28.4253 204.385L115.19 166.519L36.0179 203.835L219.149 244.183L28.4253 204.385Z" fill="white"/>
<g opacity="0.2">
<path d="M113.196 157.524L26.4312 195.39L28.4249 204.384L56.8928 193.996L37.2823 194.207L113.196 157.524Z" fill="white"/>
</g>
<path opacity="0.2" d="M28.4253 204.385L214.839 241.091L217.156 235.188L219.149 244.182L28.4253 204.385Z" fill="white"/>
<path opacity="0.2" d="M202.866 199.379L115.19 166.519L28.4253 204.385L202.866 199.379Z" fill="url(#paint48_linear_3511_1750)"/>
<path opacity="0.6" d="M198.021 192.58L202.866 199.379L200.872 190.384L113.196 157.524L198.021 192.58Z" fill="#1B373D"/>
<path opacity="0.8" d="M488.414 391.282L487.368 397.65C493.963 398.673 527.972 394.492 527.972 394.492L527.706 390.044C527.706 390.044 495.01 392.305 488.414 391.282Z" fill="url(#paint49_linear_3511_1750)"/>
<path opacity="0.6" d="M488.414 391.282C475.071 389.214 426.085 338.553 426.085 338.553L424.082 342.367C424.082 342.367 474.026 395.582 487.368 397.65L488.414 391.282Z" fill="url(#paint50_linear_3511_1750)"/>
<path opacity="0.3" d="M468.404 331.74C468.404 331.74 478.758 345.958 497.137 344.636C512.086 366.386 523.889 387.107 527.973 394.494L527.707 390.046C527.707 390.046 518.782 371.31 498.162 341.308C479.783 342.631 468.972 328.034 468.972 328.034L426.086 338.553L424.083 342.367L468.404 331.74Z" fill="url(#paint51_linear_3511_1750)"/>
<path opacity="0.5" d="M468.404 331.74C468.404 331.74 478.758 345.958 497.137 344.636L498.16 341.308C479.781 342.631 468.97 328.034 468.97 328.034L468.404 331.74Z" fill="url(#paint52_linear_3511_1750)"/>
<path opacity="0.2" d="M426.087 338.553L468.972 328.034C468.972 328.034 479.783 342.631 498.162 341.308C518.782 371.308 527.707 390.046 527.707 390.046C527.707 390.046 495.011 392.306 488.416 391.284C475.072 389.214 426.087 338.553 426.087 338.553Z" fill="url(#paint53_linear_3511_1750)"/>
<g opacity="0.4">
<path d="M426.087 338.553L468.972 328.034C468.972 328.034 479.783 342.631 498.162 341.308C518.782 371.308 527.707 390.046 527.707 390.046L497.581 343.407C488.591 343.177 477.471 339.483 468.245 330.25C451.447 334.866 426.087 338.553 426.087 338.553Z" fill="white"/>
</g>
<g opacity="0.5">
<path d="M488.414 391.282L487.367 397.65L490.482 393.264L527.705 390.044C527.705 390.044 495.01 392.305 488.414 391.282Z" fill="white"/>
</g>
<g opacity="0.5">
<path d="M426.087 338.553C426.087 338.553 475.579 386.571 488.355 389.571C490.948 390.18 527.707 390.044 527.707 390.044C527.707 390.044 495.011 392.305 488.416 391.282C475.072 389.214 426.087 338.553 426.087 338.553Z" fill="white"/>
</g>
<path opacity="0.3" d="M426.086 338.553L424.083 342.367C424.083 342.367 474.027 395.582 487.369 397.65C487.369 397.65 460.2 380.108 425.658 342.483C424.983 341.747 426.086 338.553 426.086 338.553Z" fill="#1B373D"/>
<path opacity="0.1" d="M462.749 373.619C466.029 369.983 484.633 348.273 490.51 340.942C476.823 338.622 468.972 328.034 468.972 328.034L426.087 338.553C426.087 338.553 445.163 358.282 462.749 373.619Z" fill="white"/>
<path opacity="0.1" d="M448.031 366.638C444.619 363.33 441.349 360.087 438.382 357.103C438.204 354.862 438.033 352.62 437.869 350.378C440.874 353.333 444.289 356.642 447.904 360.066C447.942 362.257 447.984 364.448 448.031 366.638ZM478.811 386.411C476.348 384.722 473.649 382.677 470.809 380.391C470.965 382.821 471.126 385.251 471.291 387.681C474.11 389.97 476.762 391.977 479.151 393.589C479.03 391.197 478.916 388.805 478.811 386.411Z" fill="white"/>
<path opacity="0.5" d="M415.344 283.804L413.542 280.528L356.502 300.822L364.251 305.77L415.344 283.804Z" fill="url(#paint54_linear_3511_1750)"/>
<path opacity="0.5" d="M415.343 283.804C415.343 283.804 539.92 271.908 546.735 270.012C543.548 269.71 539.712 267.47 539.712 267.47L413.542 280.528L415.343 283.804Z" fill="#999999"/>
<path opacity="0.2" d="M413.542 280.528L356.503 300.822L558.407 307.529L539.714 267.47L413.542 280.528Z" fill="url(#paint55_linear_3511_1750)"/>
<path opacity="0.8" d="M558.407 307.53L356.503 300.822L364.252 305.77L565.04 312.685L558.407 307.53Z" fill="url(#paint56_linear_3511_1750)"/>
<path opacity="0.8" d="M558.408 307.529L565.041 312.685C565.041 312.685 553.148 285.976 546.736 270.012C544.007 269.791 539.714 267.47 539.714 267.47L558.408 307.529Z" fill="url(#paint57_linear_3511_1750)"/>
<path opacity="0.2" d="M413.542 280.528L356.502 300.822L558.406 307.529L539.714 267.47L413.542 280.528Z" fill="url(#paint58_linear_3511_1750)"/>
<path opacity="0.7" d="M413.541 280.528L356.502 300.822L558.406 307.529L372.557 299.375L413.541 280.528Z" fill="white"/>
<path opacity="0.2" d="M487.988 272.824L413.541 280.528L356.501 300.822L441.992 303.662C457.324 293.383 472.655 283.104 487.988 272.824Z" fill="url(#paint59_linear_3511_1750)"/>
<path opacity="0.7" d="M558.406 307.529C558.406 307.529 542.189 270.653 541.145 268.8C544.003 270.336 546.734 270.012 546.734 270.012C544.005 269.791 539.712 267.47 539.712 267.47L558.406 307.529Z" fill="white"/>
<path opacity="0.1" d="M481.082 309.794L460.288 309.077C462.207 307.532 464.132 305.992 466.062 304.462L486.182 305.13C484.469 306.671 482.778 308.235 481.082 309.794ZM537.874 306.848L523.341 306.365C521.658 307.962 519.984 309.538 518.318 311.076L533.222 311.59C534.763 309.999 536.314 308.418 537.874 306.848ZM427.624 305.311C428.485 304.638 429.353 303.957 430.226 303.271L405.678 302.456C403.877 303.965 402.089 305.484 400.308 307.012L424.453 307.843C425.508 306.997 426.557 306.143 427.624 305.311Z" fill="white"/>
<path opacity="0.6" d="M468.31 418.463L467.7 410.724L373.731 346.468L374.342 354.207L468.31 418.463Z" fill="url(#paint60_linear_3511_1750)"/>
<path opacity="0.2" d="M373.731 346.468L467.7 410.724L452.445 446.484L390.699 451.137L387.155 379.806L373.731 346.468Z" fill="url(#paint61_linear_3511_1750)"/>
<path opacity="0.7" d="M387.155 379.806L373.731 346.468L374.342 354.207L387.508 386.907L387.155 379.806Z" fill="url(#paint62_linear_3511_1750)"/>
<path opacity="0.8" d="M467.7 410.724L452.445 446.484L453.056 454.224L468.31 418.463L467.7 410.724Z" fill="url(#paint63_linear_3511_1750)"/>
<path opacity="0.8" d="M452.445 446.484L390.924 451.12L391.31 458.877L453.056 454.224L452.445 446.484Z" fill="url(#paint64_linear_3511_1750)"/>
<g opacity="0.5">
<path d="M373.731 346.468L386.354 380.033L391.309 458.877L390.699 451.137L387.155 379.806L373.731 346.468Z" fill="white"/>
</g>
<path opacity="0.3" d="M393.806 457.199L390.924 451.12L391.31 458.877L453.056 454.224L393.806 457.199Z" fill="#1B373D"/>
<path opacity="0.1" d="M464.096 419.176L467.701 410.724L468.311 418.463L463.904 428.794C463.887 425.588 463.947 422.382 464.096 419.176ZM460.549 427.489L456.638 436.656C456.371 440.317 456.115 443.98 455.864 447.642L460.705 436.295C460.608 433.359 460.547 430.424 460.549 427.489Z" fill="white"/>
<path opacity="0.7" d="M451.105 444.739L467.699 410.724L452.444 446.484L390.698 451.137L387.154 379.806L392.424 449.453L451.105 444.739Z" fill="white"/>
<path opacity="0.2" d="M390.699 451.138L402.482 450.25C406.412 442.096 410.435 433.983 414.629 425.952C421.213 413.34 428.124 400.873 435.186 388.493L373.731 346.469L387.156 379.808L390.699 451.138Z" fill="url(#paint65_linear_3511_1750)"/>
<path opacity="0.3" d="M375.165 467.64L376.891 461.914L342.373 370.31L337.509 374.209L375.165 467.64Z" fill="url(#paint66_linear_3511_1750)"/>
<path opacity="0.2" d="M342.373 370.31L335.47 419.48L376.892 461.914L342.373 370.31Z" fill="url(#paint67_linear_3511_1750)"/>
<path opacity="0.8" d="M335.469 419.48L342.373 370.31L337.509 374.209L332.018 421.838L335.469 419.48Z" fill="url(#paint68_linear_3511_1750)"/>
<path opacity="0.8" d="M335.469 419.48L332.018 421.837L375.165 467.639L376.891 461.914L335.469 419.48Z" fill="url(#paint69_linear_3511_1750)"/>
<path opacity="0.8" d="M335.47 419.48L342.373 370.31L337.509 374.209L340.946 372.52L335.47 419.48Z" fill="white"/>
<path opacity="0.1" d="M371.45 463.695L367.987 460.019C368.076 457.648 368.115 455.278 368.102 452.91L371.501 456.394C371.489 458.827 371.472 461.261 371.45 463.695ZM361.252 445.893L357.458 442.007C357.436 444.22 357.364 446.435 357.277 448.651L361.372 452.998C361.32 450.629 361.285 448.261 361.252 445.893ZM350.668 435.049L342.278 426.454C342.324 428.624 342.403 430.794 342.502 432.966L350.712 441.681C350.717 439.481 350.694 437.267 350.668 435.049Z" fill="url(#paint70_linear_3511_1750)"/>
<path opacity="0.5" d="M342.373 370.31L335.47 419.48L342.714 372.621L376.892 461.914L342.373 370.31Z" fill="white"/>
<path opacity="0.2" d="M355.024 403.984L342.374 370.31L338.883 395.17L355.024 403.984Z" fill="url(#paint71_linear_3511_1750)"/>
<path opacity="0.1" d="M337.008 408.523L335.47 419.48L371.153 446.922L362.053 422.698C353.664 418.043 345.303 413.337 337.008 408.523Z" fill="url(#paint72_linear_3511_1750)"/>
<g opacity="0.4">
<path d="M281.409 16.1748L277.612 23.2472L168.879 45.1378L279.338 24.9311L281.409 16.1748Z" fill="white"/>
</g>
<path opacity="0.2" d="M312.476 74.7744C315.582 60.9664 287.622 48.8424 287.622 48.8424L290.384 47.8321C290.384 47.8321 309.024 52.547 314.547 66.0181C314.547 66.0181 314.012 73.1767 312.476 74.7744ZM281.409 16.1748L170.951 36.3816L168.88 45.1378L279.338 24.9311L281.409 16.1748Z" fill="url(#paint73_linear_3511_1750)"/>
<path opacity="0.4" d="M170.951 36.3816L281.409 16.1748L290.384 47.8321C290.384 47.8321 309.024 52.547 314.547 66.0181C302.12 86.2249 260.008 92.9605 260.008 92.9605L224.8 57.2619L170.951 36.3816Z" fill="url(#paint74_linear_3511_1750)"/>
<path opacity="0.7" d="M260.009 92.9604L257.938 101.717C257.938 101.717 300.05 94.9811 312.476 74.7743C313.299 72.4802 314.268 67.962 314.547 66.0181C302.121 86.2248 260.009 92.9604 260.009 92.9604Z" fill="url(#paint75_linear_3511_1750)"/>
<path opacity="0.7" d="M260.009 92.9603L224.8 57.2617L222.729 66.018L257.938 101.717L260.009 92.9603Z" fill="url(#paint76_linear_3511_1750)"/>
<path opacity="0.7" d="M224.799 57.2619L170.951 36.3816L168.88 45.1379L222.728 66.0182L224.799 57.2619Z" fill="url(#paint77_linear_3511_1750)"/>
<path opacity="0.6" d="M279.338 24.9311L287.623 48.8424L290.384 47.8321L281.409 16.1748L279.338 24.9311Z" fill="url(#paint78_linear_3511_1750)"/>
<path opacity="0.6" d="M260.009 92.9605L257.938 101.717C257.938 101.717 300.05 94.9812 312.476 74.7744C313.299 72.4803 302.466 91.2766 263.806 98.0122L260.009 92.9605Z" fill="#1B373D"/>
<path opacity="0.6" d="M224.799 57.2618L221.002 63.6606L168.88 45.1377L222.728 66.018L224.799 57.2618Z" fill="#1B373D"/>
<g opacity="0.3">
<path d="M260.009 92.9603L224.8 57.2617L222.729 66.018L226.181 60.9663L260.009 92.9603Z" fill="white"/>
</g>
<g opacity="0.6">
<path d="M170.952 36.3816L225.145 55.578L261.389 90.9398C261.389 90.9398 301.522 85.6767 314.547 66.0182C302.121 86.2249 260.009 92.9605 260.009 92.9605L224.8 57.2619L170.952 36.3816Z" fill="white"/>
</g>
<g opacity="0.2">
<path d="M289.175 43.5644L281.41 16.1748L170.952 36.3816L213.707 52.9605C222.275 53.0535 282.077 45.8518 289.175 43.5644Z" fill="white"/>
</g>
<g opacity="0.4">
<path d="M312.962 65.8228C310.422 56.2838 290.385 47.832 290.385 47.832C290.385 47.832 309.025 52.5469 314.548 66.0181C302.121 86.2249 260.009 92.9604 260.009 92.9604C260.009 92.9604 305.569 81.0506 312.962 65.8228Z" fill="white"/>
</g>
<g opacity="0.3">
<path d="M392.723 45.037L389.82 43.2305L398.848 94.5233L402.944 99.2449L392.723 45.037Z" fill="white"/>
</g>
<path opacity="0.5" d="M392.723 45.0369L442.414 18.2589L436.761 17.5085L389.82 43.2304L392.723 45.0369Z" fill="url(#paint79_linear_3511_1750)"/>
<path opacity="0.2" d="M398.849 94.5232L389.82 43.2304L436.761 17.5085L429.781 51.1515L398.849 94.5232Z" fill="url(#paint80_linear_3511_1750)"/>
<path opacity="0.6" d="M429.781 51.1514L398.849 94.5231L402.944 99.2448L433.849 53.4644L429.781 51.1514Z" fill="url(#paint81_linear_3511_1750)"/>
<path opacity="0.6" d="M436.761 17.5085L429.781 51.1514L433.849 53.4644L442.414 18.2589L436.761 17.5085Z" fill="url(#paint82_linear_3511_1750)"/>
<path opacity="0.6" d="M435.391 19.1897L389.82 43.2304L436.761 17.5085L429.781 51.1514L435.391 19.1897Z" fill="white"/>
<path opacity="0.6" d="M429.781 51.1514L432.405 53.692L402.943 99.2448L433.848 53.4644L429.781 51.1514Z" fill="#1B373D"/>
<path opacity="0.3" d="M392.722 45.0368L401.214 91.2066L393.616 45.8909L433.766 22.7852L392.722 45.0368Z" fill="#1B373D"/>
<path opacity="0.3" d="M398.849 94.5232L428.645 50.2974L433.584 21.201L426.761 22.9873L436.761 17.5085L429.781 51.1515L398.849 94.5232Z" fill="white"/>
<path opacity="0.1" d="M440.271 27.0635L438.882 32.7726C437.633 30.5499 436.293 28.3756 434.957 26.2014L436.242 20.0073C437.629 22.3365 438.975 24.6872 440.271 27.0635ZM433.637 32.5625L432.477 38.153C433.612 40.3703 434.779 42.5715 435.965 44.7646L437.271 39.395C436.05 37.1224 434.839 34.8445 433.637 32.5625Z" fill="white"/>
<path opacity="0.2" d="M427.354 54.5515L429.779 51.1513L436.759 17.5071L393.298 41.3228C404.758 45.453 416.029 50.0696 427.354 54.5515Z" fill="url(#paint83_linear_3511_1750)"/>
<path opacity="0.5" d="M588.204 187.609L590.852 179.386L447.032 230.585L439.639 239.967L588.204 187.609Z" fill="url(#paint84_linear_3511_1750)"/>
<path opacity="0.6" d="M538.791 239.951L535.691 245.055L589.218 277.704L590.715 269.686L538.791 239.951Z" fill="url(#paint85_linear_3511_1750)"/>
<path opacity="0.8" d="M538.792 239.951L447.032 230.585L439.639 239.967L535.692 245.055L538.792 239.951Z" fill="url(#paint86_linear_3511_1750)"/>
<g opacity="0.2">
<path d="M588.202 187.609L589.217 277.704L590.714 269.686L590.85 179.386L588.202 187.609Z" fill="white"/>
</g>
<path opacity="0.2" d="M590.852 179.386L447.032 230.585L538.791 239.951L590.715 269.686L590.852 179.386Z" fill="url(#paint87_linear_3511_1750)"/>
<path opacity="0.5" d="M539.723 238.526L447.032 230.585L538.791 239.951L590.715 269.686L539.723 238.526Z" fill="white"/>
<path opacity="0.2" d="M539.723 238.526L535.691 245.055L539.881 243.281L590.715 269.686L539.723 238.526Z" fill="white"/>
<path opacity="0.2" d="M590.852 179.386L447.032 230.585L538.791 239.951L455.181 229.906L590.852 179.386Z" fill="white"/>
<path opacity="0.2" d="M590.825 196.608L590.852 179.386L447.032 230.585L511.219 237.137L590.825 196.608Z" fill="url(#paint88_linear_3511_1750)"/>
<path opacity="0.6" d="M538.792 239.951L534.562 242.944L439.639 239.967L535.692 245.055L538.792 239.951Z" fill="#1B373D"/>
<g opacity="0.5">
<path d="M590.852 179.386L447.033 230.585L589.495 182.475L590.715 269.686L590.852 179.386Z" fill="white"/>
</g>
<path opacity="0.9" d="M103.826 140.787L101.412 133.528C92.7935 121.311 69.2797 92.458 31.8192 106.79L28.667 115.076C70.3926 96.7904 92.8639 127.678 103.826 140.787Z" fill="url(#paint89_linear_3511_1750)"/>
<path opacity="0.4" d="M101.412 133.528C92.7936 121.311 69.2798 92.458 31.8193 106.79L27.5308 144.948L101.412 133.528Z" fill="url(#paint90_linear_3511_1750)"/>
<path opacity="0.7" d="M101.411 133.528L27.5296 144.95L24.3774 153.235L103.825 140.787L101.411 133.528Z" fill="url(#paint91_linear_3511_1750)"/>
<path opacity="0.8" d="M27.5296 144.95L31.8182 106.791C31.0505 107.053 29.4461 114.778 28.666 115.077L24.3774 153.236L27.5296 144.95Z" fill="url(#paint92_linear_3511_1750)"/>
<g opacity="0.1">
<path d="M92.105 134.966C90.3722 137.782 88.6491 140.604 86.9356 143.433L71.9133 145.786C73.7593 142.98 75.5529 140.142 77.2733 137.259L92.105 134.966ZM63.3804 139.406L51.7961 141.197C49.3605 144.171 46.9097 147.133 44.4492 150.089L56.4726 148.206C58.7591 145.261 61.0525 142.322 63.3804 139.406Z" fill="white"/>
</g>
<g opacity="0.5">
<path d="M101.412 133.528C92.7932 121.311 69.2794 92.458 31.8188 106.79C31.8188 106.79 53.8843 101.764 67.5548 107.198C87.0604 114.952 101.412 133.528 101.412 133.528Z" fill="white"/>
</g>
<g opacity="0.6">
<path d="M101.413 133.528L29.092 142.983L31.8203 106.79L27.5317 144.95L101.413 133.528Z" fill="white"/>
</g>
<g opacity="0.6">
<path d="M27.5296 144.95L31.8182 106.791C31.0505 107.053 27.0243 144.408 27.0243 144.408L24.3774 153.236L27.5296 144.95Z" fill="white"/>
</g>
<g opacity="0.2">
<path d="M68.2961 138.647L101.411 133.528C93.6007 122.456 73.558 97.7213 41.9863 103.849C52.3432 114.386 61.108 126.005 68.2961 138.647Z" fill="white"/>
</g>
<path opacity="0.2" d="M445.244 152.686C458.066 164.726 473.332 184.989 473.332 184.989C473.332 184.989 465.125 194.611 457.872 198.223C450.619 201.835 436.762 198.185 434.521 203.423C432.28 208.661 407.859 212.177 402.658 213.384C397.457 214.589 390.416 209.146 388.772 207.811C387.129 206.476 351.035 197.259 351.035 197.259C351.035 197.259 358.59 159.694 369.183 154.451C379.775 149.208 416.241 144.613 433.839 131.84C438.038 142.303 445.244 152.686 445.244 152.686Z" fill="url(#paint93_linear_3511_1750)"/>
<path opacity="0.8" d="M473.332 184.99C470.418 188.076 462.853 195.744 457.872 198.224C450.619 201.836 436.762 198.187 434.521 203.423C432.28 208.66 407.859 212.178 402.658 213.383C397.456 214.589 390.416 209.145 388.772 207.81C387.129 206.475 351.035 197.258 351.035 197.258C351.035 197.258 352.717 188.9 355.605 179.52C351.09 191.792 348.347 205.426 348.347 205.426C348.347 205.426 385.828 214.997 387.535 216.383C389.241 217.77 396.552 223.423 401.953 222.171C407.355 220.918 432.713 217.266 435.041 211.827C437.369 206.389 451.758 210.179 459.29 206.428C466.821 202.678 475.343 192.685 475.343 192.685C475.343 192.685 474.479 186.925 473.332 184.99Z" fill="url(#paint94_linear_3511_1750)"/>
<path opacity="0.3" d="M457.872 198.223C450.619 201.835 436.762 198.185 434.521 203.421L435.042 211.825C437.369 206.386 451.758 210.176 459.29 206.425L457.872 198.223Z" fill="url(#paint95_linear_3511_1750)"/>
<path opacity="0.3" d="M402.658 213.383C397.457 214.589 390.416 209.145 388.772 207.81L387.533 216.383C389.24 217.77 396.551 223.423 401.952 222.171C402.471 222.049 402.658 213.383 402.658 213.383Z" fill="url(#paint96_linear_3511_1750)"/>
<path opacity="0.3" d="M368.478 163.237C379.07 157.994 415.536 153.399 433.133 140.626C437.332 151.089 444.537 161.474 444.537 161.474C453.65 170.029 470.118 186.048 475.342 192.685L473.331 184.989C473.331 184.989 458.065 164.724 445.242 152.686C445.242 152.686 438.036 142.301 433.838 131.838C416.24 144.613 379.774 149.207 369.182 154.45C358.591 159.693 349.106 200.909 348.346 205.425C355.936 194.716 361.108 166.886 368.478 163.237Z" fill="url(#paint97_linear_3511_1750)"/>
<g opacity="0.2">
<path d="M475.344 192.685C470.119 186.046 453.652 170.029 444.538 161.474L445.242 152.688C458.065 164.727 473.331 184.99 473.331 184.99L475.344 192.685ZM433.839 131.838C416.242 144.613 379.775 149.207 369.184 154.45L368.479 163.237C379.071 157.994 415.537 153.399 433.135 140.626C433.135 140.626 433.911 137.114 433.839 131.838Z" fill="white"/>
</g>
<g opacity="0.4">
<path d="M368.764 156.98C379.356 151.737 409.587 147.508 432.969 134.612C438.684 144.035 444.823 155.216 444.823 155.216C455.862 165.581 473.331 184.99 473.331 184.99C473.331 184.99 458.065 164.726 445.243 152.688C445.243 152.688 438.037 142.303 433.838 131.84C416.24 144.615 379.774 149.208 369.182 154.451C358.591 159.694 351.034 197.259 351.034 197.259C351.034 197.259 351.078 197.269 351.154 197.29C353.058 188.809 359.832 161.402 368.764 156.98Z" fill="white"/>
</g>
<path opacity="0.3" d="M402.657 213.383C397.456 214.589 390.415 209.145 388.771 207.81L388.579 209.137C399.242 216.06 402.657 213.383 402.657 213.383Z" fill="url(#paint98_linear_3511_1750)"/>
<path opacity="0.2" d="M429.583 186.964C408.841 176.886 388.788 165.546 368.325 154.96C358.186 161.724 351.035 197.258 351.035 197.258C351.035 197.258 387.129 206.475 388.772 207.81C390.416 209.145 397.457 214.589 402.658 213.383C407.859 212.178 432.28 208.66 434.521 203.423C436.566 198.643 448.274 201.25 455.82 198.997C446.998 195.146 438.236 191.168 429.583 186.964Z" fill="url(#paint99_linear_3511_1750)"/>
<path opacity="0.2" d="M114.554 436.319L108.689 433.862C75.793 441.802 66.1528 463.07 35.3184 448.032L35.9866 454.116C59.7849 468.65 98.4452 436.094 114.554 436.319Z" fill="url(#paint100_linear_3511_1750)"/>
<path opacity="0.4" d="M108.689 433.862C75.793 441.802 66.1528 463.07 35.3184 448.032L52.8329 482.407L108.689 433.862Z" fill="url(#paint101_linear_3511_1750)"/>
<path opacity="0.8" d="M108.688 433.862L52.8325 482.407L53.5008 488.49L114.554 436.319C113.264 434.266 108.688 433.862 108.688 433.862Z" fill="url(#paint102_linear_3511_1750)"/>
<path opacity="0.8" d="M52.8329 482.407L35.3184 448.032L35.9866 454.116L53.5012 488.49L52.8329 482.407Z" fill="url(#paint103_linear_3511_1750)"/>
<path opacity="0.7" d="M108.689 433.862C93.8074 445.005 68.3371 468.564 53.457 480.101C53.457 480.101 41.0304 456.358 35.3184 448.032L52.8329 482.407L108.689 433.862Z" fill="white"/>
<path opacity="0.2" d="M73.2385 464.672L108.689 433.862C84.1117 439.795 72.5136 453.161 55.3608 453.273C61.3518 457.027 67.2448 460.914 73.2385 464.672Z" fill="url(#paint104_linear_3511_1750)"/>
<path opacity="0.3" d="M52.832 482.407L53.5003 488.49L114.553 436.319C113.264 434.266 52.832 482.407 52.832 482.407Z" fill="#1B373D"/>
<path opacity="0.2" d="M142.169 577.268L50.5093 515.035L24.9948 482.936C4.09612 496.038 12.2369 545.436 12.2369 545.436C12.2369 545.436 82.3585 596.921 96.1658 589.715C109.973 582.51 142.169 577.268 142.169 577.268Z" fill="url(#paint105_linear_3511_1750)"/>
<path opacity="0.8" d="M96.1656 589.715C82.3583 596.921 12.2366 545.436 12.2366 545.436C12.2366 545.436 10.9995 537.888 10.7303 527.92C10.3589 541.245 12.2366 552.683 12.2366 552.683C12.2366 552.683 82.3583 604.168 96.1656 596.963V589.715Z" fill="url(#paint106_linear_3511_1750)"/>
<path opacity="0.8" d="M96.1657 589.715C95.9144 589.846 95.9296 597.087 96.1657 596.963C109.973 589.757 142.169 584.517 142.169 584.517V577.269C142.169 577.269 109.973 582.51 96.1657 589.715Z" fill="url(#paint107_linear_3511_1750)"/>
<path opacity="0.3" d="M50.5088 515.035V522.283L142.168 584.517V577.268L50.5088 515.035Z" fill="url(#paint108_linear_3511_1750)"/>
<path opacity="0.3" d="M24.9946 482.936C12.2588 490.92 10.312 512.371 10.7317 527.92C11.1321 513.549 14.1504 496.982 24.9946 490.183V482.936Z" fill="url(#paint109_linear_3511_1750)"/>
<path opacity="0.3" d="M50.5096 515.035L24.9951 482.936V490.183L50.5096 522.283V515.035Z" fill="url(#paint110_linear_3511_1750)"/>
<path opacity="0.5" d="M142.168 577.268L50.5088 515.035L135.955 575.409C135.955 575.409 107.65 581.471 96.1653 589.715C109.973 582.51 142.168 577.268 142.168 577.268Z" fill="white"/>
<path opacity="0.5" d="M12.2375 545.436V552.683C12.2375 552.683 82.3591 604.169 96.1664 596.963C96.1664 596.963 82.8161 595.247 72.4427 589.554C11.6907 556.212 12.2375 545.436 12.2375 545.436Z" fill="#1B373D"/>
<path opacity="0.4" d="M50.5093 515.035L24.9948 482.936C4.09612 496.038 12.2369 545.436 12.2369 545.436C12.2369 545.436 5.09991 499.277 25.0542 484.22L50.5093 515.035Z" fill="white"/>
<path opacity="0.2" d="M66.4912 580.485C41.9419 567.243 12.2369 545.436 12.2369 545.436C12.2369 545.436 4.09612 496.038 24.9948 482.936L50.5093 515.035L54.8848 518.006C58.2993 538.913 62.1557 559.745 66.4912 580.485ZM102.224 550.148L75.7338 532.162C79.4314 551.471 83.7544 570.655 88.2639 589.799C91.6536 590.59 94.3833 590.646 96.1658 589.715C99.8744 587.779 104.914 585.988 110.295 584.4C107.43 573.016 104.574 561.632 102.224 550.148Z" fill="url(#paint111_linear_3511_1750)"/>
<path opacity="0.4" d="M556.058 541.534L546.878 534.828L485.205 569.108L482.613 576.923L556.058 541.534Z" fill="url(#paint112_linear_3511_1750)"/>
<path opacity="0.2" d="M485.205 569.108L546.878 534.828L593.385 482.971L578.028 549.249L538.357 568.156L485.205 569.108Z" fill="url(#paint113_linear_3511_1750)"/>
<path opacity="0.6" d="M578.028 549.249L593.386 482.971L594.36 489.545L580.844 554.62L578.028 549.249ZM538.357 568.156L485.205 569.107L482.613 576.923L539.45 575.474L538.357 568.156Z" fill="url(#paint114_linear_3511_1750)"/>
<path opacity="0.5" d="M578.028 549.249L538.357 568.156L539.449 575.475L580.842 554.62L578.028 549.249Z" fill="url(#paint115_linear_3511_1750)"/>
<path opacity="0.4" d="M556.058 541.534L594.358 489.545L593.385 482.971L546.878 534.828L556.058 541.534Z" fill="url(#paint116_linear_3511_1750)"/>
<path opacity="0.9" d="M556.058 541.534L594.358 489.545L557.386 543.543L508.221 564.729L556.058 541.534Z" fill="#3B5055"/>
<path opacity="0.7" d="M485.205 569.108L546.878 534.828L491.045 567.253L538.47 566.088L578.028 549.249L538.357 568.156L485.205 569.108Z" fill="white"/>
<path opacity="0.7" d="M546.878 534.828L593.385 482.971L578.029 549.249L590.643 489.025L546.878 534.828Z" fill="white"/>
<path opacity="0.2" d="M562.206 517.736L546.878 534.83L485.205 569.108L538.357 568.157L557.171 559.191C558.743 545.359 560.413 531.54 562.206 517.736Z" fill="url(#paint117_linear_3511_1750)"/>
<path opacity="0.3" d="M541.47 572.129L538.357 568.156L539.449 575.475L580.842 554.62L541.47 572.129Z" fill="#1B373D"/>
<path opacity="0.5" d="M595.998 355.229C588.669 344.456 564.168 342.839 552.323 335.968C551.479 336.876 549.864 338.623 549.202 339.728C561.35 346.427 586.058 348.779 592.793 358.681L595.998 355.229Z" fill="url(#paint118_linear_3511_1750)"/>
<path opacity="0.8" d="M552.283 341.281C551.547 338.524 552.324 335.968 552.324 335.968C552.324 335.968 549.994 338.39 549.204 339.728C545.218 351.832 575.903 391.335 585.199 385.918C586.384 384.629 588.32 382.158 588.32 382.158C586.626 383.033 585.154 382.548 585.154 382.548C575.04 380.629 554.966 355.108 552.283 341.281Z" fill="url(#paint119_linear_3511_1750)"/>
<path opacity="0.3" d="M588.32 382.158C587.239 375.389 592.637 366.582 595.999 355.229L592.795 358.681C589.921 368.381 584.356 376.55 585.199 385.918C586.268 384.571 587.781 382.836 588.32 382.158Z" fill="url(#paint120_linear_3511_1750)"/>
<path opacity="0.2" d="M552.325 335.968C564.17 342.839 588.671 344.456 596 355.229C592.638 366.581 587.239 375.389 588.32 382.158C579.024 387.575 548.339 348.072 552.325 335.968Z" fill="url(#paint121_linear_3511_1750)"/>
<path opacity="0.3" d="M592.795 358.681C589.4 353.691 582.182 350.854 574.383 348.362C584.398 352.166 588.646 354.218 591.983 359.124C589.709 368.179 587.997 368.511 587.285 373.277C588.9 368.92 591.17 364.168 592.795 358.681Z" fill="#1B373D"/>
<path opacity="0.4" d="M552.325 335.968C564.17 342.839 588.671 344.456 596 355.229C591.238 349.105 577.832 344.432 566.921 342.11C559.085 340.442 553.249 337.829 553.249 337.829C550.584 344.715 575.172 384.191 588.322 382.158C579.024 387.575 548.339 348.072 552.325 335.968Z" fill="white"/>
<path opacity="0.3" d="M549.203 339.728C545.217 351.832 575.902 391.335 585.198 385.918C586.383 384.629 588.319 382.158 588.319 382.158C578.918 392.786 548.227 356.182 549.203 339.728Z" fill="#1B373D"/>
<path opacity="0.2" d="M559.868 357.882C571.324 358.902 582.794 359.757 594.277 360.436C594.879 358.761 595.466 357.03 595.999 355.229C588.67 344.456 564.169 342.839 552.324 335.968C550.798 340.606 554.369 349.266 559.868 357.882Z" fill="url(#paint122_linear_3511_1750)"/>
<path opacity="0.3" d="M51.1311 350.139L48.1763 342.67L1.36968 411.344L0 424.285L51.1311 350.139Z" fill="url(#paint123_linear_3511_1750)"/>
<path opacity="0.2" d="M48.1768 342.67L1.37012 411.344C1.37012 411.344 77.8528 406.211 85.7298 396.291C85.7298 396.291 102.555 365.459 108.118 362.509C133.183 349.219 187.227 316.369 187.227 316.369L48.1768 342.67Z" fill="url(#paint124_linear_3511_1750)"/>
<path opacity="0.8" d="M187.227 316.369C187.227 316.369 133.184 349.219 108.118 362.509C102.556 365.459 85.73 396.29 85.73 396.29C77.8529 406.211 1.37025 411.344 1.37025 411.344L0.00195312 424.285C0.00195312 424.285 80.8077 413.679 88.6847 403.759C88.6847 403.759 105.51 372.929 111.073 369.979C136.138 356.688 199.074 318.95 199.074 318.95L187.227 316.369Z" fill="url(#paint125_linear_3511_1750)"/>
<path opacity="0.5" d="M108.118 362.509C102.555 365.459 85.7295 396.29 85.7295 396.29L88.6842 403.758C88.6842 403.758 105.51 372.928 111.073 369.978L108.118 362.509Z" fill="url(#paint126_linear_3511_1750)"/>
<path opacity="0.2" d="M51.1315 350.139L199.072 318.95L187.227 316.369L48.1768 342.67L51.1315 350.139Z" fill="url(#paint127_linear_3511_1750)"/>
<path opacity="0.6" d="M48.1768 342.67L1.37012 411.344C1.37012 411.344 52.4929 410.732 84.6004 398.131L88.6832 403.759C88.6832 403.759 86.5776 398.436 85.7284 396.291C85.7284 396.291 76.6502 399.909 73.4938 400.708C46.3363 407.58 5.03733 409.035 5.03733 409.035L48.1768 342.67Z" fill="white"/>
<path opacity="0.3" d="M108.118 362.509C102.555 365.459 85.7295 396.29 85.7295 396.29L88.6842 403.758C88.6842 403.758 86.9804 398.201 87.7122 396.178C88.455 394.122 108.118 362.509 108.118 362.509Z" fill="white"/>
<path opacity="0.3" d="M187.227 316.369L194.002 319.896C176.994 331.834 127.443 358.947 110.424 367.972C110.424 367.972 103.963 374.874 89.0625 403.07C91.5782 398.511 106.001 372.667 111.071 369.978C136.136 356.687 199.072 318.949 199.072 318.949L187.227 316.369Z" fill="#1B373D"/>
<path opacity="0.1" d="M100.486 371.614C103.557 367.056 106.384 363.429 108.118 362.509C133.183 349.219 187.227 316.369 187.227 316.369L55.3291 341.318C69.6831 352.405 84.7496 362.632 100.486 371.614Z" fill="url(#paint128_linear_3511_1750)"/>
<g opacity="0.6">
<path d="M182.144 318.464C182.144 318.464 106.385 363.429 108.118 362.509C133.182 349.219 187.227 316.369 187.227 316.369L55.3286 341.318L182.144 318.464Z" fill="white"/>
</g>
</g>
<defs>
<linearGradient id="paint0_linear_3511_1750" x1="340.445" y1="429.479" x2="232.143" y2="531.486" gradientUnits="userSpaceOnUse">
<stop stop-color="white"/>
<stop offset="1" stop-color="#6797A7"/>
</linearGradient>
<linearGradient id="paint1_linear_3511_1750" x1="219.735" y1="511.998" x2="240.044" y2="548.369" gradientUnits="userSpaceOnUse">
<stop stop-color="#BBC6C9"/>
<stop offset="0.1285" stop-color="#B4C0C4"/>
<stop offset="0.3097" stop-color="#A2B1B5"/>
<stop offset="0.5222" stop-color="#84989D"/>
<stop offset="0.7584" stop-color="#5A757C"/>
<stop offset="1" stop-color="#274A54"/>
</linearGradient>
<linearGradient id="paint2_linear_3511_1750" x1="345.552" y1="390.912" x2="216.428" y2="635.545" gradientUnits="userSpaceOnUse">
<stop stop-color="#BBC6C9"/>
<stop offset="0.1285" stop-color="#B4C0C4"/>
<stop offset="0.3097" stop-color="#A2B1B5"/>
<stop offset="0.5222" stop-color="#84989D"/>
<stop offset="0.7584" stop-color="#5A757C"/>
<stop offset="1" stop-color="#274A54"/>
</linearGradient>
<linearGradient id="paint3_linear_3511_1750" x1="318.094" y1="401.072" x2="226.662" y2="487.19" gradientUnits="userSpaceOnUse">
<stop stop-color="white"/>
<stop offset="1" stop-color="#6797A7"/>
</linearGradient>
<linearGradient id="paint4_linear_3511_1750" x1="131.851" y1="470.538" x2="188.289" y2="470.538" gradientUnits="userSpaceOnUse">
<stop stop-color="#BBC6C9"/>
<stop offset="0.1285" stop-color="#B4C0C4"/>
<stop offset="0.3097" stop-color="#A2B1B5"/>
<stop offset="0.5222" stop-color="#84989D"/>
<stop offset="0.7584" stop-color="#5A757C"/>
<stop offset="1" stop-color="#274A54"/>
</linearGradient>
<linearGradient id="paint5_linear_3511_1750" x1="121.883" y1="456.099" x2="156.567" y2="564.456" gradientUnits="userSpaceOnUse">
<stop stop-color="white"/>
<stop offset="1" stop-color="#6797A7"/>
</linearGradient>
<linearGradient id="paint6_linear_3511_1750" x1="134.876" y1="499.167" x2="121.224" y2="535.461" gradientUnits="userSpaceOnUse">
<stop stop-color="#BBC6C9"/>
<stop offset="0.1285" stop-color="#B4C0C4"/>
<stop offset="0.3097" stop-color="#A2B1B5"/>
<stop offset="0.5222" stop-color="#84989D"/>
<stop offset="0.7584" stop-color="#5A757C"/>
<stop offset="1" stop-color="#274A54"/>
</linearGradient>
<linearGradient id="paint7_linear_3511_1750" x1="170.541" y1="548.456" x2="173.799" y2="563.844" gradientUnits="userSpaceOnUse">
<stop stop-color="#BBC6C9"/>
<stop offset="0.1285" stop-color="#B4C0C4"/>
<stop offset="0.3097" stop-color="#A2B1B5"/>
<stop offset="0.5222" stop-color="#84989D"/>
<stop offset="0.7584" stop-color="#5A757C"/>
<stop offset="1" stop-color="#274A54"/>
</linearGradient>
<linearGradient id="paint8_linear_3511_1750" x1="82.6913" y1="486.805" x2="133.584" y2="486.805" gradientUnits="userSpaceOnUse">
<stop stop-color="#BBC6C9"/>
<stop offset="0.1285" stop-color="#B4C0C4"/>
<stop offset="0.3097" stop-color="#A2B1B5"/>
<stop offset="0.5222" stop-color="#84989D"/>
<stop offset="0.7584" stop-color="#5A757C"/>
<stop offset="1" stop-color="#274A54"/>
</linearGradient>
<linearGradient id="paint9_linear_3511_1750" x1="128.706" y1="24.3044" x2="28.3916" y2="29.7358" gradientUnits="userSpaceOnUse">
<stop stop-color="white"/>
<stop offset="1" stop-color="#6797A7"/>
</linearGradient>
<linearGradient id="paint10_linear_3511_1750" x1="248.936" y1="100.245" x2="48.9679" y2="111.072" gradientUnits="userSpaceOnUse">
<stop stop-color="white"/>
<stop offset="1" stop-color="#6797A7"/>
</linearGradient>
<linearGradient id="paint11_linear_3511_1750" x1="47.8117" y1="122.554" x2="71.1945" y2="65.7644" gradientUnits="userSpaceOnUse">
<stop stop-color="#BBC6C9"/>
<stop offset="1" stop-color="#274A54"/>
</linearGradient>
<linearGradient id="paint12_linear_3511_1750" x1="259.167" y1="76.8125" x2="196.094" y2="141.812" gradientUnits="userSpaceOnUse">
<stop stop-color="white"/>
<stop offset="1" stop-color="white"/>
</linearGradient>
<linearGradient id="paint13_linear_3511_1750" x1="184.739" y1="205.517" x2="207.163" y2="160.246" gradientUnits="userSpaceOnUse">
<stop stop-color="white"/>
<stop offset="1" stop-color="#274A54"/>
</linearGradient>
<linearGradient id="paint14_linear_3511_1750" x1="118.272" y1="254.046" x2="125.904" y2="305.357" gradientUnits="userSpaceOnUse">
<stop stop-color="#BBC6C9"/>
<stop offset="0.1285" stop-color="#B4C0C4"/>
<stop offset="0.3097" stop-color="#A2B1B5"/>
<stop offset="0.5222" stop-color="#84989D"/>
<stop offset="0.7584" stop-color="#5A757C"/>
<stop offset="1" stop-color="#274A54"/>
</linearGradient>
<linearGradient id="paint15_linear_3511_1750" x1="58.5531" y1="312.812" x2="179.257" y2="253.635" gradientUnits="userSpaceOnUse">
<stop stop-color="white"/>
<stop offset="1" stop-color="#6797A7"/>
</linearGradient>
<linearGradient id="paint16_linear_3511_1750" x1="57.272" y1="310.198" x2="177.976" y2="251.022" gradientUnits="userSpaceOnUse">
<stop stop-color="white"/>
<stop offset="1" stop-color="#6797A7"/>
</linearGradient>
<linearGradient id="paint17_linear_3511_1750" x1="49.2283" y1="293.791" x2="169.934" y2="234.614" gradientUnits="userSpaceOnUse">
<stop stop-color="white"/>
<stop offset="1" stop-color="#6797A7"/>
</linearGradient>
<linearGradient id="paint18_linear_3511_1750" x1="413.175" y1="408.334" x2="440.27" y2="476.55" gradientUnits="userSpaceOnUse">
<stop stop-color="white"/>
<stop offset="1" stop-color="white"/>
</linearGradient>
<linearGradient id="paint19_linear_3511_1750" x1="569.537" y1="482.127" x2="372.88" y2="540.891" gradientUnits="userSpaceOnUse">
<stop stop-color="white"/>
<stop offset="1" stop-color="#6797A7"/>
</linearGradient>
<linearGradient id="paint20_linear_3511_1750" x1="528.542" y1="520.204" x2="504.499" y2="501.54" gradientUnits="userSpaceOnUse">
<stop stop-color="white"/>
<stop offset="1" stop-color="#274A54"/>
</linearGradient>
<linearGradient id="paint21_linear_3511_1750" x1="454.82" y1="598.825" x2="252.339" y2="471.765" gradientUnits="userSpaceOnUse">
<stop stop-color="#BBC6C9"/>
<stop offset="0.1285" stop-color="#B4C0C4"/>
<stop offset="0.3097" stop-color="#A2B1B5"/>
<stop offset="0.5222" stop-color="#84989D"/>
<stop offset="0.7584" stop-color="#5A757C"/>
<stop offset="1" stop-color="#274A54"/>
</linearGradient>
<linearGradient id="paint22_linear_3511_1750" x1="562.997" y1="460.248" x2="366.336" y2="519.013" gradientUnits="userSpaceOnUse">
<stop stop-color="white"/>
<stop offset="1" stop-color="#6797A7"/>
</linearGradient>
<linearGradient id="paint23_linear_3511_1750" x1="580.049" y1="35.2309" x2="486.94" y2="130.662" gradientUnits="userSpaceOnUse">
<stop stop-color="white"/>
<stop offset="1" stop-color="#6797A7"/>
</linearGradient>
<linearGradient id="paint24_linear_3511_1750" x1="609.719" y1="13.2723" x2="571.551" y2="51.9324" gradientUnits="userSpaceOnUse">
<stop stop-color="white"/>
<stop offset="1" stop-color="#274A54"/>
</linearGradient>
<linearGradient id="paint25_linear_3511_1750" x1="518.657" y1="131.241" x2="505.831" y2="135.466" gradientUnits="userSpaceOnUse">
<stop stop-color="white"/>
<stop offset="1" stop-color="#274A54"/>
</linearGradient>
<linearGradient id="paint26_linear_3511_1750" x1="504.885" y1="-32.8655" x2="509.94" y2="54.7754" gradientUnits="userSpaceOnUse">
<stop stop-color="white"/>
<stop offset="1" stop-color="#274A54"/>
</linearGradient>
<linearGradient id="paint27_linear_3511_1750" x1="222.821" y1="312.736" x2="145.262" y2="442.942" gradientUnits="userSpaceOnUse">
<stop stop-color="white"/>
<stop offset="1" stop-color="#6797A7"/>
</linearGradient>
<linearGradient id="paint28_linear_3511_1750" x1="232.082" y1="366.147" x2="242.032" y2="366.147" gradientUnits="userSpaceOnUse">
<stop stop-color="white"/>
<stop offset="1" stop-color="#274A54"/>
</linearGradient>
<linearGradient id="paint29_linear_3511_1750" x1="242.605" y1="336.896" x2="227.4" y2="362.422" gradientUnits="userSpaceOnUse">
<stop stop-color="#BBC6C9"/>
<stop offset="0.1285" stop-color="#B4C0C4"/>
<stop offset="0.3097" stop-color="#A2B1B5"/>
<stop offset="0.5222" stop-color="#84989D"/>
<stop offset="0.7584" stop-color="#5A757C"/>
<stop offset="1" stop-color="#274A54"/>
</linearGradient>
<linearGradient id="paint30_linear_3511_1750" x1="201.345" y1="394.595" x2="230.332" y2="411.373" gradientUnits="userSpaceOnUse">
<stop stop-color="#BBC6C9"/>
<stop offset="1" stop-color="#274A54"/>
</linearGradient>
<linearGradient id="paint31_linear_3511_1750" x1="233.048" y1="319.491" x2="158.832" y2="444.084" gradientUnits="userSpaceOnUse">
<stop stop-color="white"/>
<stop offset="1" stop-color="#6797A7"/>
</linearGradient>
<linearGradient id="paint32_linear_3511_1750" x1="233.048" y1="319.491" x2="158.832" y2="444.084" gradientUnits="userSpaceOnUse">
<stop stop-color="white"/>
<stop offset="1" stop-color="#6797A7"/>
</linearGradient>
<linearGradient id="paint33_linear_3511_1750" x1="167.491" y1="425.33" x2="164.648" y2="436.623" gradientUnits="userSpaceOnUse">
<stop stop-color="#BBC6C9"/>
<stop offset="0.1108" stop-color="#A0AFB4"/>
<stop offset="0.3112" stop-color="#758B92"/>
<stop offset="0.5055" stop-color="#536F77"/>
<stop offset="0.6895" stop-color="#3B5B64"/>
<stop offset="0.8589" stop-color="#2C4E58"/>
<stop offset="1" stop-color="#274A54"/>
</linearGradient>
<linearGradient id="paint34_linear_3511_1750" x1="243.6" y1="325.777" x2="169.384" y2="450.369" gradientUnits="userSpaceOnUse">
<stop stop-color="white"/>
<stop offset="1" stop-color="#6797A7"/>
</linearGradient>
<linearGradient id="paint35_linear_3511_1750" x1="347.707" y1="137.266" x2="357.099" y2="148.818" gradientUnits="userSpaceOnUse">
<stop stop-color="white"/>
<stop offset="0.0271" stop-color="#EFF2F3"/>
<stop offset="0.1173" stop-color="#C1CBCE"/>
<stop offset="0.2132" stop-color="#97A8AD"/>
<stop offset="0.3132" stop-color="#758B91"/>
<stop offset="0.4187" stop-color="#58737B"/>
<stop offset="0.5313" stop-color="#42616A"/>
<stop offset="0.6547" stop-color="#33545D"/>
<stop offset="0.7966" stop-color="#2A4C56"/>
<stop offset="1" stop-color="#274A54"/>
</linearGradient>
<linearGradient id="paint36_linear_3511_1750" x1="308.479" y1="138.585" x2="302.785" y2="189.395" gradientUnits="userSpaceOnUse">
<stop stop-color="white"/>
<stop offset="1" stop-color="#274A54"/>
</linearGradient>
<linearGradient id="paint37_linear_3511_1750" x1="274.999" y1="101.113" x2="399.331" y2="140.112" gradientUnits="userSpaceOnUse">
<stop stop-color="white"/>
<stop offset="1" stop-color="#6797A7"/>
</linearGradient>
<linearGradient id="paint38_linear_3511_1750" x1="324.842" y1="58.8512" x2="341.888" y2="86.5775" gradientUnits="userSpaceOnUse">
<stop stop-color="white"/>
<stop offset="1" stop-color="#274A54"/>
</linearGradient>
<linearGradient id="paint39_linear_3511_1750" x1="356.971" y1="92.2291" x2="314.076" y2="170.305" gradientUnits="userSpaceOnUse">
<stop stop-color="white"/>
<stop offset="1" stop-color="#6797A7"/>
</linearGradient>
<linearGradient id="paint40_linear_3511_1750" x1="308.479" y1="138.585" x2="302.784" y2="189.395" gradientUnits="userSpaceOnUse">
<stop stop-color="white"/>
<stop offset="1" stop-color="#274A54"/>
</linearGradient>
<linearGradient id="paint41_linear_3511_1750" x1="360.539" y1="94.1899" x2="317.644" y2="172.266" gradientUnits="userSpaceOnUse">
<stop stop-color="white"/>
<stop offset="1" stop-color="#6797A7"/>
</linearGradient>
<linearGradient id="paint42_linear_3511_1750" x1="349.233" y1="143.031" x2="355.302" y2="150.496" gradientUnits="userSpaceOnUse">
<stop stop-color="white"/>
<stop offset="0.0271" stop-color="#EFF2F3"/>
<stop offset="0.1173" stop-color="#C1CBCE"/>
<stop offset="0.2132" stop-color="#97A8AD"/>
<stop offset="0.3132" stop-color="#758B91"/>
<stop offset="0.4187" stop-color="#58737B"/>
<stop offset="0.5313" stop-color="#42616A"/>
<stop offset="0.6547" stop-color="#33545D"/>
<stop offset="0.7966" stop-color="#2A4C56"/>
<stop offset="1" stop-color="#274A54"/>
</linearGradient>
<linearGradient id="paint43_linear_3511_1750" x1="127.127" y1="200.119" x2="118.606" y2="240.712" gradientUnits="userSpaceOnUse">
<stop stop-color="white"/>
<stop offset="1" stop-color="#274A54"/>
</linearGradient>
<linearGradient id="paint44_linear_3511_1750" x1="130.744" y1="152.115" x2="123.991" y2="225.706" gradientUnits="userSpaceOnUse">
<stop stop-color="white"/>
<stop offset="1" stop-color="#6797A7"/>
</linearGradient>
<linearGradient id="paint45_linear_3511_1750" x1="60.3774" y1="159.054" x2="73.6745" y2="188.376" gradientUnits="userSpaceOnUse">
<stop stop-color="white"/>
<stop offset="1" stop-color="#274A54"/>
</linearGradient>
<linearGradient id="paint46_linear_3511_1750" x1="260.456" y1="155.536" x2="215.845" y2="212.901" gradientUnits="userSpaceOnUse">
<stop stop-color="white"/>
<stop offset="1" stop-color="#274A54"/>
</linearGradient>
<linearGradient id="paint47_linear_3511_1750" x1="166.255" y1="157.781" x2="157.223" y2="181.629" gradientUnits="userSpaceOnUse">
<stop stop-color="white"/>
<stop offset="0.104" stop-color="#CCD5D7"/>
<stop offset="0.2101" stop-color="#A1B0B4"/>
<stop offset="0.3214" stop-color="#7B9197"/>
<stop offset="0.4365" stop-color="#5D777E"/>
<stop offset="0.5567" stop-color="#45636C"/>
<stop offset="0.6843" stop-color="#34555E"/>
<stop offset="0.8242" stop-color="#2A4D57"/>
<stop offset="1" stop-color="#274A54"/>
</linearGradient>
<linearGradient id="paint48_linear_3511_1750" x1="120.945" y1="146.914" x2="112.357" y2="240.503" gradientUnits="userSpaceOnUse">
<stop stop-color="white"/>
<stop offset="1" stop-color="#6797A7"/>
</linearGradient>
<linearGradient id="paint49_linear_3511_1750" x1="507.46" y1="385.439" x2="508.011" y2="414.541" gradientUnits="userSpaceOnUse">
<stop stop-color="#BBC6C9"/>
<stop offset="0.1285" stop-color="#B4C0C4"/>
<stop offset="0.3097" stop-color="#A2B1B5"/>
<stop offset="0.5222" stop-color="#84989D"/>
<stop offset="0.7584" stop-color="#5A757C"/>
<stop offset="1" stop-color="#274A54"/>
</linearGradient>
<linearGradient id="paint50_linear_3511_1750" x1="464.936" y1="359.324" x2="454.217" y2="371.367" gradientUnits="userSpaceOnUse">
<stop stop-color="white"/>
<stop offset="1" stop-color="#274A54"/>
</linearGradient>
<linearGradient id="paint51_linear_3511_1750" x1="490.352" y1="297.369" x2="477.041" y2="366.74" gradientUnits="userSpaceOnUse">
<stop stop-color="white"/>
<stop offset="1" stop-color="#6797A7"/>
</linearGradient>
<linearGradient id="paint52_linear_3511_1750" x1="487.691" y1="321.668" x2="481.648" y2="341.75" gradientUnits="userSpaceOnUse">
<stop stop-color="white"/>
<stop offset="1" stop-color="#6797A7"/>
</linearGradient>
<linearGradient id="paint53_linear_3511_1750" x1="510.035" y1="341.966" x2="422.945" y2="403.623" gradientUnits="userSpaceOnUse">
<stop stop-color="white"/>
<stop offset="1" stop-color="#6797A7"/>
</linearGradient>
<linearGradient id="paint54_linear_3511_1750" x1="385.741" y1="280.953" x2="386.115" y2="305.436" gradientUnits="userSpaceOnUse">
<stop stop-color="white"/>
<stop offset="1" stop-color="#6797A7"/>
</linearGradient>
<linearGradient id="paint55_linear_3511_1750" x1="462.435" y1="295.929" x2="517.732" y2="343.703" gradientUnits="userSpaceOnUse">
<stop stop-color="white"/>
<stop offset="1" stop-color="#6797A7"/>
</linearGradient>
<linearGradient id="paint56_linear_3511_1750" x1="460.226" y1="272.752" x2="460.83" y2="312.293" gradientUnits="userSpaceOnUse">
<stop stop-color="white"/>
<stop offset="1" stop-color="#274A54"/>
</linearGradient>
<linearGradient id="paint57_linear_3511_1750" x1="527.64" y1="293.609" x2="595.747" y2="283.396" gradientUnits="userSpaceOnUse">
<stop stop-color="#BBC6C9"/>
<stop offset="0.1285" stop-color="#B4C0C4"/>
<stop offset="0.3097" stop-color="#A2B1B5"/>
<stop offset="0.5222" stop-color="#84989D"/>
<stop offset="0.7584" stop-color="#5A757C"/>
<stop offset="1" stop-color="#274A54"/>
</linearGradient>
<linearGradient id="paint58_linear_3511_1750" x1="462.435" y1="295.929" x2="517.732" y2="343.703" gradientUnits="userSpaceOnUse">
<stop stop-color="white"/>
<stop offset="1" stop-color="#6797A7"/>
</linearGradient>
<linearGradient id="paint59_linear_3511_1750" x1="450.339" y1="309.928" x2="505.636" y2="357.702" gradientUnits="userSpaceOnUse">
<stop stop-color="white"/>
<stop offset="1" stop-color="#6797A7"/>
</linearGradient>
<linearGradient id="paint60_linear_3511_1750" x1="443.707" y1="354.542" x2="421.945" y2="382.68" gradientUnits="userSpaceOnUse">
<stop stop-color="white"/>
<stop offset="0.0425" stop-color="#E5E9EA"/>
<stop offset="0.1237" stop-color="#B8C4C7"/>
<stop offset="0.2109" stop-color="#91A3A8"/>
<stop offset="0.303" stop-color="#70878E"/>
<stop offset="0.4014" stop-color="#567179"/>
<stop offset="0.5084" stop-color="#416068"/>
<stop offset="0.6283" stop-color="#32535D"/>
<stop offset="0.7715" stop-color="#2A4C56"/>
<stop offset="1" stop-color="#274A54"/>
</linearGradient>
<linearGradient id="paint61_linear_3511_1750" x1="366.295" y1="350.349" x2="443.753" y2="454.586" gradientUnits="userSpaceOnUse">
<stop stop-color="white"/>
<stop offset="1" stop-color="#6797A7"/>
</linearGradient>
<linearGradient id="paint62_linear_3511_1750" x1="395.548" y1="349.342" x2="371.674" y2="378.482" gradientUnits="userSpaceOnUse">
<stop stop-color="white"/>
<stop offset="0.0425" stop-color="#E5E9EA"/>
<stop offset="0.1237" stop-color="#B8C4C7"/>
<stop offset="0.2109" stop-color="#91A3A8"/>
<stop offset="0.303" stop-color="#70878E"/>
<stop offset="0.4014" stop-color="#567179"/>
<stop offset="0.5084" stop-color="#416068"/>
<stop offset="0.6283" stop-color="#32535D"/>
<stop offset="0.7715" stop-color="#2A4C56"/>
<stop offset="1" stop-color="#274A54"/>
</linearGradient>
<linearGradient id="paint63_linear_3511_1750" x1="446.498" y1="426.307" x2="467.334" y2="436.032" gradientUnits="userSpaceOnUse">
<stop stop-color="#BBC6C9"/>
<stop offset="0.1285" stop-color="#B4C0C4"/>
<stop offset="0.3097" stop-color="#A2B1B5"/>
<stop offset="0.5222" stop-color="#84989D"/>
<stop offset="0.7584" stop-color="#5A757C"/>
<stop offset="1" stop-color="#274A54"/>
</linearGradient>
<linearGradient id="paint64_linear_3511_1750" x1="420.315" y1="434.848" x2="422.102" y2="456.276" gradientUnits="userSpaceOnUse">
<stop stop-color="white"/>
<stop offset="0.0425" stop-color="#E5E9EA"/>
<stop offset="0.1237" stop-color="#B8C4C7"/>
<stop offset="0.2109" stop-color="#91A3A8"/>
<stop offset="0.303" stop-color="#70878E"/>
<stop offset="0.4014" stop-color="#567179"/>
<stop offset="0.5084" stop-color="#416068"/>
<stop offset="0.6283" stop-color="#32535D"/>
<stop offset="0.7715" stop-color="#2A4C56"/>
<stop offset="1" stop-color="#274A54"/>
</linearGradient>
<linearGradient id="paint65_linear_3511_1750" x1="361.499" y1="353.914" x2="438.957" y2="458.152" gradientUnits="userSpaceOnUse">
<stop stop-color="white"/>
<stop offset="1" stop-color="#6797A7"/>
</linearGradient>
<linearGradient id="paint66_linear_3511_1750" x1="339.364" y1="370.741" x2="373.909" y2="466.232" gradientUnits="userSpaceOnUse">
<stop stop-color="white"/>
<stop offset="0.0425" stop-color="#E5E9EA"/>
<stop offset="0.1237" stop-color="#B8C4C7"/>
<stop offset="0.2109" stop-color="#91A3A8"/>
<stop offset="0.303" stop-color="#70878E"/>
<stop offset="0.4014" stop-color="#567179"/>
<stop offset="0.5084" stop-color="#416068"/>
<stop offset="0.6283" stop-color="#32535D"/>
<stop offset="0.7715" stop-color="#2A4C56"/>
<stop offset="1" stop-color="#274A54"/>
</linearGradient>
<linearGradient id="paint67_linear_3511_1750" x1="330.916" y1="373.829" x2="363.846" y2="464.858" gradientUnits="userSpaceOnUse">
<stop stop-color="white"/>
<stop offset="0.2289" stop-color="#DAE5E9"/>
<stop offset="0.758" stop-color="#87ADBA"/>
<stop offset="1" stop-color="#6797A7"/>
</linearGradient>
<linearGradient id="paint68_linear_3511_1750" x1="330.311" y1="395.55" x2="350.602" y2="397.172" gradientUnits="userSpaceOnUse">
<stop stop-color="white"/>
<stop offset="0.0425" stop-color="#E5E9EA"/>
<stop offset="0.1237" stop-color="#B8C4C7"/>
<stop offset="0.2109" stop-color="#91A3A8"/>
<stop offset="0.303" stop-color="#70878E"/>
<stop offset="0.4014" stop-color="#567179"/>
<stop offset="0.5084" stop-color="#416068"/>
<stop offset="0.6283" stop-color="#32535D"/>
<stop offset="0.7715" stop-color="#2A4C56"/>
<stop offset="1" stop-color="#274A54"/>
</linearGradient>
<linearGradient id="paint69_linear_3511_1750" x1="363.725" y1="435.502" x2="353.82" y2="444.986" gradientUnits="userSpaceOnUse">
<stop stop-color="white"/>
<stop offset="0.0425" stop-color="#E5E9EA"/>
<stop offset="0.1237" stop-color="#B8C4C7"/>
<stop offset="0.2109" stop-color="#91A3A8"/>
<stop offset="0.303" stop-color="#70878E"/>
<stop offset="0.4014" stop-color="#567179"/>
<stop offset="0.5084" stop-color="#416068"/>
<stop offset="0.6283" stop-color="#32535D"/>
<stop offset="0.7715" stop-color="#2A4C56"/>
<stop offset="1" stop-color="#274A54"/>
</linearGradient>
<linearGradient id="paint70_linear_3511_1750" x1="365.422" y1="437.274" x2="355.518" y2="446.758" gradientUnits="userSpaceOnUse">
<stop stop-color="white"/>
<stop offset="1" stop-color="#6797A7"/>
</linearGradient>
<linearGradient id="paint71_linear_3511_1750" x1="336.372" y1="371.54" x2="385.844" y2="508.293" gradientUnits="userSpaceOnUse">
<stop stop-color="white"/>
<stop offset="0.2289" stop-color="#DAE5E9"/>
<stop offset="0.758" stop-color="#87ADBA"/>
<stop offset="1" stop-color="#6797A7"/>
</linearGradient>
<linearGradient id="paint72_linear_3511_1750" x1="330.71" y1="373.589" x2="380.181" y2="510.341" gradientUnits="userSpaceOnUse">
<stop stop-color="white"/>
<stop offset="0.2289" stop-color="#DAE5E9"/>
<stop offset="0.758" stop-color="#87ADBA"/>
<stop offset="1" stop-color="#6797A7"/>
</linearGradient>
<linearGradient id="paint73_linear_3511_1750" x1="293.896" y1="36.8755" x2="-177.488" y2="214.358" gradientUnits="userSpaceOnUse">
<stop stop-color="white"/>
<stop offset="1" stop-color="#6797A7"/>
</linearGradient>
<linearGradient id="paint74_linear_3511_1750" x1="268.646" y1="2.64935" x2="234.784" y2="69.3417" gradientUnits="userSpaceOnUse">
<stop stop-color="white"/>
<stop offset="1" stop-color="#6797A7"/>
</linearGradient>
<linearGradient id="paint75_linear_3511_1750" x1="330.175" y1="31.6539" x2="273.219" y2="103.08" gradientUnits="userSpaceOnUse">
<stop stop-color="white"/>
<stop offset="0.0271" stop-color="#EFF2F3"/>
<stop offset="0.1173" stop-color="#C1CBCE"/>
<stop offset="0.2132" stop-color="#97A8AD"/>
<stop offset="0.3132" stop-color="#758B91"/>
<stop offset="0.4187" stop-color="#58737B"/>
<stop offset="0.5313" stop-color="#42616A"/>
<stop offset="0.6547" stop-color="#33545D"/>
<stop offset="0.7966" stop-color="#2A4C56"/>
<stop offset="1" stop-color="#274A54"/>
</linearGradient>
<linearGradient id="paint76_linear_3511_1750" x1="252.838" y1="38.1448" x2="233.388" y2="111.804" gradientUnits="userSpaceOnUse">
<stop stop-color="white"/>
<stop offset="1" stop-color="#6797A7"/>
</linearGradient>
<linearGradient id="paint77_linear_3511_1750" x1="212.22" y1="18.254" x2="196.979" y2="52.5522" gradientUnits="userSpaceOnUse">
<stop stop-color="white"/>
<stop offset="0.0271" stop-color="#EFF2F3"/>
<stop offset="0.1173" stop-color="#C1CBCE"/>
<stop offset="0.2132" stop-color="#97A8AD"/>
<stop offset="0.3132" stop-color="#758B91"/>
<stop offset="0.4187" stop-color="#58737B"/>
<stop offset="0.5313" stop-color="#42616A"/>
<stop offset="0.6547" stop-color="#33545D"/>
<stop offset="0.7966" stop-color="#2A4C56"/>
<stop offset="1" stop-color="#274A54"/>
</linearGradient>
<linearGradient id="paint78_linear_3511_1750" x1="287.142" y1="31.5678" x2="284.051" y2="32.7314" gradientUnits="userSpaceOnUse">
<stop stop-color="white"/>
<stop offset="0.0271" stop-color="#EFF2F3"/>
<stop offset="0.1173" stop-color="#C1CBCE"/>
<stop offset="0.2132" stop-color="#97A8AD"/>
<stop offset="0.3132" stop-color="#758B91"/>
<stop offset="0.4187" stop-color="#58737B"/>
<stop offset="0.5313" stop-color="#42616A"/>
<stop offset="0.6547" stop-color="#33545D"/>
<stop offset="0.7966" stop-color="#2A4C56"/>
<stop offset="1" stop-color="#274A54"/>
</linearGradient>
<linearGradient id="paint79_linear_3511_1750" x1="411.368" y1="22.797" x2="416.077" y2="31.0757" gradientUnits="userSpaceOnUse">
<stop stop-color="white"/>
<stop offset="1" stop-color="#274A54"/>
</linearGradient>
<linearGradient id="paint80_linear_3511_1750" x1="421.058" y1="30.181" x2="392.776" y2="75.0739" gradientUnits="userSpaceOnUse">
<stop stop-color="white"/>
<stop offset="1" stop-color="#6797A7"/>
</linearGradient>
<linearGradient id="paint81_linear_3511_1750" x1="392.111" y1="58.5751" x2="417.972" y2="76.9516" gradientUnits="userSpaceOnUse">
<stop stop-color="white"/>
<stop offset="0.0614" stop-color="#E4E9EA"/>
<stop offset="0.1895" stop-color="#B3BFC3"/>
<stop offset="0.3207" stop-color="#889BA1"/>
<stop offset="0.4526" stop-color="#657E85"/>
<stop offset="0.5857" stop-color="#4A676F"/>
<stop offset="0.7201" stop-color="#365760"/>
<stop offset="0.857" stop-color="#2B4D57"/>
<stop offset="1" stop-color="#274A54"/>
</linearGradient>
<linearGradient id="paint82_linear_3511_1750" x1="422.62" y1="32.4742" x2="441.101" y2="36.7137" gradientUnits="userSpaceOnUse">
<stop stop-color="white"/>
<stop offset="0.096" stop-color="#F6F7F8"/>
<stop offset="0.2549" stop-color="#DDE2E4"/>
<stop offset="0.4571" stop-color="#B3C0C3"/>
<stop offset="0.6947" stop-color="#7B9096"/>
<stop offset="0.9593" stop-color="#33545D"/>
<stop offset="1" stop-color="#274A54"/>
</linearGradient>
<linearGradient id="paint83_linear_3511_1750" x1="421.839" y1="30.6742" x2="393.557" y2="75.5683" gradientUnits="userSpaceOnUse">
<stop stop-color="white"/>
<stop offset="1" stop-color="#6797A7"/>
</linearGradient>
<linearGradient id="paint84_linear_3511_1750" x1="509.648" y1="193.858" x2="515.893" y2="212.399" gradientUnits="userSpaceOnUse">
<stop stop-color="white"/>
<stop offset="0.0425" stop-color="#E5E9EA"/>
<stop offset="0.1237" stop-color="#B8C4C7"/>
<stop offset="0.2109" stop-color="#91A3A8"/>
<stop offset="0.303" stop-color="#70878E"/>
<stop offset="0.4014" stop-color="#567179"/>
<stop offset="0.5084" stop-color="#416068"/>
<stop offset="0.6283" stop-color="#32535D"/>
<stop offset="0.7715" stop-color="#2A4C56"/>
<stop offset="1" stop-color="#274A54"/>
</linearGradient>
<linearGradient id="paint85_linear_3511_1750" x1="576.12" y1="233.526" x2="555.731" y2="277.184" gradientUnits="userSpaceOnUse">
<stop stop-color="white"/>
<stop offset="0.1285" stop-color="#D1D8DA"/>
<stop offset="0.2898" stop-color="#9EADB2"/>
<stop offset="0.4489" stop-color="#738A90"/>
<stop offset="0.6023" stop-color="#526E76"/>
<stop offset="0.7485" stop-color="#3A5A63"/>
<stop offset="0.8844" stop-color="#2C4E58"/>
<stop offset="1" stop-color="#274A54"/>
</linearGradient>
<linearGradient id="paint86_linear_3511_1750" x1="516.245" y1="185.631" x2="492.242" y2="236.314" gradientUnits="userSpaceOnUse">
<stop stop-color="white"/>
<stop offset="0.0425" stop-color="#E5E9EA"/>
<stop offset="0.1237" stop-color="#B8C4C7"/>
<stop offset="0.2109" stop-color="#91A3A8"/>
<stop offset="0.303" stop-color="#70878E"/>
<stop offset="0.4014" stop-color="#567179"/>
<stop offset="0.5084" stop-color="#416068"/>
<stop offset="0.6283" stop-color="#32535D"/>
<stop offset="0.7715" stop-color="#2A4C56"/>
<stop offset="1" stop-color="#274A54"/>
</linearGradient>
<linearGradient id="paint87_linear_3511_1750" x1="640.74" y1="201.471" x2="501.727" y2="259.788" gradientUnits="userSpaceOnUse">
<stop stop-color="white"/>
<stop offset="1" stop-color="#6797A7"/>
</linearGradient>
<linearGradient id="paint88_linear_3511_1750" x1="629.189" y1="173.936" x2="490.176" y2="232.253" gradientUnits="userSpaceOnUse">
<stop stop-color="white"/>
<stop offset="1" stop-color="#6797A7"/>
</linearGradient>
<linearGradient id="paint89_linear_3511_1750" x1="94.3022" y1="99.2986" x2="77.0677" y2="116.043" gradientUnits="userSpaceOnUse">
<stop stop-color="white"/>
<stop offset="0.104" stop-color="#CCD5D7"/>
<stop offset="0.2101" stop-color="#A1B0B4"/>
<stop offset="0.3214" stop-color="#7B9197"/>
<stop offset="0.4365" stop-color="#5D777E"/>
<stop offset="0.5567" stop-color="#45636C"/>
<stop offset="0.6843" stop-color="#34555E"/>
<stop offset="0.8242" stop-color="#2A4D57"/>
<stop offset="1" stop-color="#274A54"/>
</linearGradient>
<linearGradient id="paint90_linear_3511_1750" x1="95.6273" y1="119.505" x2="22.7484" y2="125.441" gradientUnits="userSpaceOnUse">
<stop stop-color="white"/>
<stop offset="1" stop-color="#6797A7"/>
</linearGradient>
<linearGradient id="paint91_linear_3511_1750" x1="61.1625" y1="116.474" x2="63.9418" y2="146.814" gradientUnits="userSpaceOnUse">
<stop stop-color="white"/>
<stop offset="0.0271" stop-color="#EFF2F3"/>
<stop offset="0.1173" stop-color="#C1CBCE"/>
<stop offset="0.2132" stop-color="#97A8AD"/>
<stop offset="0.3132" stop-color="#758B91"/>
<stop offset="0.4187" stop-color="#58737B"/>
<stop offset="0.5313" stop-color="#42616A"/>
<stop offset="0.6547" stop-color="#33545D"/>
<stop offset="0.7966" stop-color="#2A4C56"/>
<stop offset="1" stop-color="#274A54"/>
</linearGradient>
<linearGradient id="paint92_linear_3511_1750" x1="39.6752" y1="129.509" x2="-29.0578" y2="132.649" gradientUnits="userSpaceOnUse">
<stop stop-color="white"/>
<stop offset="0.104" stop-color="#CCD5D7"/>
<stop offset="0.2101" stop-color="#A1B0B4"/>
<stop offset="0.3214" stop-color="#7B9197"/>
<stop offset="0.4365" stop-color="#5D777E"/>
<stop offset="0.5567" stop-color="#45636C"/>
<stop offset="0.6843" stop-color="#34555E"/>
<stop offset="0.8242" stop-color="#2A4D57"/>
<stop offset="1" stop-color="#274A54"/>
</linearGradient>
<linearGradient id="paint93_linear_3511_1750" x1="349" y1="183.289" x2="465.605" y2="164.416" gradientUnits="userSpaceOnUse">
<stop stop-color="white"/>
<stop offset="1" stop-color="#6797A7"/>
</linearGradient>
<linearGradient id="paint94_linear_3511_1750" x1="410.58" y1="167.3" x2="412.499" y2="217.92" gradientUnits="userSpaceOnUse">
<stop stop-color="white"/>
<stop offset="0.0425" stop-color="#E5E9EA"/>
<stop offset="0.1237" stop-color="#B8C4C7"/>
<stop offset="0.2109" stop-color="#91A3A8"/>
<stop offset="0.303" stop-color="#70878E"/>
<stop offset="0.4014" stop-color="#567179"/>
<stop offset="0.5084" stop-color="#416068"/>
<stop offset="0.6283" stop-color="#32535D"/>
<stop offset="0.7715" stop-color="#2A4C56"/>
<stop offset="1" stop-color="#274A54"/>
</linearGradient>
<linearGradient id="paint95_linear_3511_1750" x1="445.556" y1="198.736" x2="450.865" y2="234.753" gradientUnits="userSpaceOnUse">
<stop stop-color="white"/>
<stop offset="0.0425" stop-color="#E5E9EA"/>
<stop offset="0.1237" stop-color="#B8C4C7"/>
<stop offset="0.2109" stop-color="#91A3A8"/>
<stop offset="0.303" stop-color="#70878E"/>
<stop offset="0.4014" stop-color="#567179"/>
<stop offset="0.5084" stop-color="#416068"/>
<stop offset="0.6283" stop-color="#32535D"/>
<stop offset="0.7715" stop-color="#2A4C56"/>
<stop offset="1" stop-color="#274A54"/>
</linearGradient>
<linearGradient id="paint96_linear_3511_1750" x1="387.651" y1="216.187" x2="464.37" y2="203.77" gradientUnits="userSpaceOnUse">
<stop stop-color="white"/>
<stop offset="0.0425" stop-color="#E5E9EA"/>
<stop offset="0.1237" stop-color="#B8C4C7"/>
<stop offset="0.2109" stop-color="#91A3A8"/>
<stop offset="0.303" stop-color="#70878E"/>
<stop offset="0.4014" stop-color="#567179"/>
<stop offset="0.5084" stop-color="#416068"/>
<stop offset="0.6283" stop-color="#32535D"/>
<stop offset="0.7715" stop-color="#2A4C56"/>
<stop offset="1" stop-color="#274A54"/>
</linearGradient>
<linearGradient id="paint97_linear_3511_1750" x1="364.06" y1="108.928" x2="401.705" y2="181.868" gradientUnits="userSpaceOnUse">
<stop stop-color="white"/>
<stop offset="0.0425" stop-color="#E5E9EA"/>
<stop offset="0.1237" stop-color="#B8C4C7"/>
<stop offset="0.2109" stop-color="#91A3A8"/>
<stop offset="0.303" stop-color="#70878E"/>
<stop offset="0.4014" stop-color="#567179"/>
<stop offset="0.5084" stop-color="#416068"/>
<stop offset="0.6283" stop-color="#32535D"/>
<stop offset="0.7715" stop-color="#2A4C56"/>
<stop offset="1" stop-color="#274A54"/>
</linearGradient>
<linearGradient id="paint98_linear_3511_1750" x1="389.127" y1="211.731" x2="454.939" y2="201.079" gradientUnits="userSpaceOnUse">
<stop stop-color="white"/>
<stop offset="0.0425" stop-color="#E5E9EA"/>
<stop offset="0.1237" stop-color="#B8C4C7"/>
<stop offset="0.2109" stop-color="#91A3A8"/>
<stop offset="0.303" stop-color="#70878E"/>
<stop offset="0.4014" stop-color="#567179"/>
<stop offset="0.5084" stop-color="#416068"/>
<stop offset="0.6283" stop-color="#32535D"/>
<stop offset="0.7715" stop-color="#2A4C56"/>
<stop offset="1" stop-color="#274A54"/>
</linearGradient>
<linearGradient id="paint99_linear_3511_1750" x1="350.029" y1="189.644" x2="466.633" y2="170.771" gradientUnits="userSpaceOnUse">
<stop stop-color="white"/>
<stop offset="1" stop-color="#6797A7"/>
</linearGradient>
<linearGradient id="paint100_linear_3511_1750" x1="108.191" y1="449.213" x2="32.919" y2="440.268" gradientUnits="userSpaceOnUse">
<stop stop-color="white"/>
<stop offset="1" stop-color="#6797A7"/>
</linearGradient>
<linearGradient id="paint101_linear_3511_1750" x1="96.8343" y1="426.104" x2="39.6645" y2="470.632" gradientUnits="userSpaceOnUse">
<stop stop-color="white"/>
<stop offset="1" stop-color="#6797A7"/>
</linearGradient>
<linearGradient id="paint102_linear_3511_1750" x1="72.4942" y1="449.104" x2="83.6716" y2="462.622" gradientUnits="userSpaceOnUse">
<stop stop-color="#BBC6C9"/>
<stop offset="0.1108" stop-color="#A0AFB4"/>
<stop offset="0.3112" stop-color="#758B92"/>
<stop offset="0.5055" stop-color="#536F77"/>
<stop offset="0.6895" stop-color="#3B5B64"/>
<stop offset="0.8589" stop-color="#2C4E58"/>
<stop offset="1" stop-color="#274A54"/>
</linearGradient>
<linearGradient id="paint103_linear_3511_1750" x1="52.5058" y1="461.698" x2="20.4894" y2="488.967" gradientUnits="userSpaceOnUse">
<stop stop-color="white"/>
<stop offset="1" stop-color="#274A54"/>
</linearGradient>
<linearGradient id="paint104_linear_3511_1750" x1="101.153" y1="431.649" x2="43.9833" y2="476.177" gradientUnits="userSpaceOnUse">
<stop stop-color="white"/>
<stop offset="1" stop-color="#6797A7"/>
</linearGradient>
<linearGradient id="paint105_linear_3511_1750" x1="11.1026" y1="498.283" x2="100.216" y2="587.605" gradientUnits="userSpaceOnUse">
<stop stop-color="white"/>
<stop offset="1" stop-color="#6797A7"/>
</linearGradient>
<linearGradient id="paint106_linear_3511_1750" x1="65.8458" y1="525.708" x2="56.9321" y2="553.454" gradientUnits="userSpaceOnUse">
<stop stop-color="#BBC6C9"/>
<stop offset="0.1285" stop-color="#B4C0C4"/>
<stop offset="0.3097" stop-color="#A2B1B5"/>
<stop offset="0.5222" stop-color="#84989D"/>
<stop offset="0.7584" stop-color="#5A757C"/>
<stop offset="1" stop-color="#274A54"/>
</linearGradient>
<linearGradient id="paint107_linear_3511_1750" x1="116.471" y1="573.136" x2="120.75" y2="596.581" gradientUnits="userSpaceOnUse">
<stop stop-color="#BBC6C9"/>
<stop offset="0.1285" stop-color="#B4C0C4"/>
<stop offset="0.3097" stop-color="#A2B1B5"/>
<stop offset="0.5222" stop-color="#84989D"/>
<stop offset="0.7584" stop-color="#5A757C"/>
<stop offset="1" stop-color="#274A54"/>
</linearGradient>
<linearGradient id="paint108_linear_3511_1750" x1="55.9686" y1="511.258" x2="123.632" y2="579.079" gradientUnits="userSpaceOnUse">
<stop stop-color="white"/>
<stop offset="1" stop-color="#6797A7"/>
</linearGradient>
<linearGradient id="paint109_linear_3511_1750" x1="10.7851" y1="498.675" x2="102.946" y2="591.051" gradientUnits="userSpaceOnUse">
<stop stop-color="white"/>
<stop offset="1" stop-color="#6797A7"/>
</linearGradient>
<linearGradient id="paint110_linear_3511_1750" x1="57.281" y1="487.22" x2="39.6823" y2="501.789" gradientUnits="userSpaceOnUse">
<stop stop-color="#BBC6C9"/>
<stop offset="0.1285" stop-color="#B4C0C4"/>
<stop offset="0.3097" stop-color="#A2B1B5"/>
<stop offset="0.5222" stop-color="#84989D"/>
<stop offset="0.7584" stop-color="#5A757C"/>
<stop offset="1" stop-color="#274A54"/>
</linearGradient>
<linearGradient id="paint111_linear_3511_1750" x1="8.67212" y1="501.46" x2="128.167" y2="621.234" gradientUnits="userSpaceOnUse">
<stop stop-color="white"/>
<stop offset="1" stop-color="#6797A7"/>
</linearGradient>
<linearGradient id="paint112_linear_3511_1750" x1="510.269" y1="537.862" x2="516.892" y2="554.259" gradientUnits="userSpaceOnUse">
<stop stop-color="white"/>
<stop offset="1" stop-color="#274A54"/>
</linearGradient>
<linearGradient id="paint113_linear_3511_1750" x1="580.513" y1="519.525" x2="536.118" y2="557.347" gradientUnits="userSpaceOnUse">
<stop stop-color="white"/>
<stop offset="1" stop-color="#6797A7"/>
</linearGradient>
<linearGradient id="paint114_linear_3511_1750" x1="555.641" y1="576.195" x2="512.011" y2="456.038" gradientUnits="userSpaceOnUse">
<stop stop-color="white"/>
<stop offset="0.0425" stop-color="#E5E9EA"/>
<stop offset="0.1237" stop-color="#B8C4C7"/>
<stop offset="0.2109" stop-color="#91A3A8"/>
<stop offset="0.303" stop-color="#70878E"/>
<stop offset="0.4014" stop-color="#567179"/>
<stop offset="0.5084" stop-color="#416068"/>
<stop offset="0.6283" stop-color="#32535D"/>
<stop offset="0.7715" stop-color="#2A4C56"/>
<stop offset="1" stop-color="#274A54"/>
</linearGradient>
<linearGradient id="paint115_linear_3511_1750" x1="546.134" y1="545.438" x2="555.216" y2="558.249" gradientUnits="userSpaceOnUse">
<stop stop-color="white"/>
<stop offset="1" stop-color="#274A54"/>
</linearGradient>
<linearGradient id="paint116_linear_3511_1750" x1="549.224" y1="494.153" x2="590.941" y2="525.262" gradientUnits="userSpaceOnUse">
<stop stop-color="white"/>
<stop offset="0.0425" stop-color="#E5E9EA"/>
<stop offset="0.1237" stop-color="#B8C4C7"/>
<stop offset="0.2109" stop-color="#91A3A8"/>
<stop offset="0.303" stop-color="#70878E"/>
<stop offset="0.4014" stop-color="#567179"/>
<stop offset="0.5084" stop-color="#416068"/>
<stop offset="0.6283" stop-color="#32535D"/>
<stop offset="0.7715" stop-color="#2A4C56"/>
<stop offset="1" stop-color="#274A54"/>
</linearGradient>
<linearGradient id="paint117_linear_3511_1750" x1="578.756" y1="517.462" x2="534.361" y2="555.285" gradientUnits="userSpaceOnUse">
<stop stop-color="white"/>
<stop offset="1" stop-color="#6797A7"/>
</linearGradient>
<linearGradient id="paint118_linear_3511_1750" x1="585.927" y1="320.983" x2="571.165" y2="351.814" gradientUnits="userSpaceOnUse">
<stop stop-color="white"/>
<stop offset="1" stop-color="#274A54"/>
</linearGradient>
<linearGradient id="paint119_linear_3511_1750" x1="594.448" y1="338.571" x2="562.294" y2="367.99" gradientUnits="userSpaceOnUse">
<stop stop-color="white"/>
<stop offset="1" stop-color="#274A54"/>
</linearGradient>
<linearGradient id="paint120_linear_3511_1750" x1="596.297" y1="370.441" x2="573.651" y2="370.992" gradientUnits="userSpaceOnUse">
<stop stop-color="#BBC6C9"/>
<stop offset="0.1285" stop-color="#B4C0C4"/>
<stop offset="0.3097" stop-color="#A2B1B5"/>
<stop offset="0.5222" stop-color="#84989D"/>
<stop offset="0.7584" stop-color="#5A757C"/>
<stop offset="1" stop-color="#274A54"/>
</linearGradient>
<linearGradient id="paint121_linear_3511_1750" x1="563.05" y1="333.825" x2="594.415" y2="384.17" gradientUnits="userSpaceOnUse">
<stop stop-color="white"/>
<stop offset="1" stop-color="#6797A7"/>
</linearGradient>
<linearGradient id="paint122_linear_3511_1750" x1="563.055" y1="333.821" x2="594.421" y2="384.167" gradientUnits="userSpaceOnUse">
<stop stop-color="white"/>
<stop offset="1" stop-color="#6797A7"/>
</linearGradient>
<linearGradient id="paint123_linear_3511_1750" x1="12.2856" y1="372.104" x2="46.4165" y2="406.656" gradientUnits="userSpaceOnUse">
<stop stop-color="white"/>
<stop offset="1" stop-color="#6797A7"/>
</linearGradient>
<linearGradient id="paint124_linear_3511_1750" x1="103.13" y1="344.593" x2="43.6338" y2="387.845" gradientUnits="userSpaceOnUse">
<stop stop-color="white"/>
<stop offset="1" stop-color="#6797A7"/>
</linearGradient>
<linearGradient id="paint125_linear_3511_1750" x1="60.9828" y1="324.946" x2="109.226" y2="386.297" gradientUnits="userSpaceOnUse">
<stop stop-color="white"/>
<stop offset="1" stop-color="#274A54"/>
</linearGradient>
<linearGradient id="paint126_linear_3511_1750" x1="91.2466" y1="374.288" x2="132.627" y2="428.042" gradientUnits="userSpaceOnUse">
<stop stop-color="#BBC6C9"/>
<stop offset="0.1285" stop-color="#B4C0C4"/>
<stop offset="0.3097" stop-color="#A2B1B5"/>
<stop offset="0.5222" stop-color="#84989D"/>
<stop offset="0.7584" stop-color="#5A757C"/>
<stop offset="1" stop-color="#274A54"/>
</linearGradient>
<linearGradient id="paint127_linear_3511_1750" x1="115.872" y1="302.485" x2="123.607" y2="332.172" gradientUnits="userSpaceOnUse">
<stop stop-color="white"/>
<stop offset="1" stop-color="#6797A7"/>
</linearGradient>
<linearGradient id="paint128_linear_3511_1750" x1="34.7337" y1="309.845" x2="174.291" y2="355.722" gradientUnits="userSpaceOnUse">
<stop stop-color="white"/>
<stop offset="1" stop-color="#6797A7"/>
</linearGradient>
</defs>
</svg>
