<svg width="19" height="14" viewBox="0 0 19 14" fill="none" xmlns="http://www.w3.org/2000/svg">
<path d="M1 6C0.447715 6 0 6.44772 0 7C0 7.55228 0.447715 8 1 8V7V6ZM17 7L17.7071 7.70711L18.4142 7L17.7071 6.29289L17 7ZM11.7071 0.292893C11.3166 -0.0976311 10.6834 -0.0976311 10.2929 0.292893C9.90237 0.683417 9.90237 1.31658 10.2929 1.70711L11 1L11.7071 0.292893ZM10.2929 12.2929C9.90237 12.6834 9.90237 13.3166 10.2929 13.7071C10.6834 14.0976 11.3166 14.0976 11.7071 13.7071L11 13L10.2929 12.2929ZM1 7V8H17V7V6H1V7ZM11 1L10.2929 1.70711L16.2929 7.70711L17 7L17.7071 6.29289L11.7071 0.292893L11 1ZM17 7L16.2929 6.29289L10.2929 12.2929L11 13L11.7071 13.7071L17.7071 7.70711L17 7Z" fill="white"/>
</svg>
