<svg width="94" height="9" viewBox="0 0 94 9" fill="none" xmlns="http://www.w3.org/2000/svg">
<path d="M1.61323 8.81935L2.29248 7.05548H6.24749L6.92949 8.81935H8.54272L5.14097 0H3.40175L0 8.81935H1.61323ZM2.87314 5.54359L4.26999 1.92821L5.66958 5.54359H2.87314ZM13.303 8.81935V3.03747L15.8228 8.81935H17.5867L20.1065 3.03747V8.81935H21.6184V0H19.7915L16.7047 7.08013L13.6179 0H11.7911V8.81935H13.303ZM26.3814 8.81935V5.79557H29.0409C30.917 5.79557 31.9386 4.86434 31.9386 2.89779C31.9386 1.02162 31.0047 0 29.0409 0H24.8695V8.81935H26.3814ZM26.3814 4.28368V1.51189H29.0409C30.2378 1.51189 30.4267 1.71457 30.4267 2.89779C30.4267 4.0947 30.2241 4.28368 29.0409 4.28368H26.3814ZM35.1897 8.81935H41.7413V7.30746H36.7016V0H35.1897V8.81935ZM43.2258 0L46.6029 4.91364V8.81935H48.1147V4.91364L51.4918 0H49.6513L47.3588 3.33875L45.0663 0H43.2258ZM60.8535 0V5.03963C60.8535 7.06917 60.4755 7.43345 58.5473 7.43345C56.6082 7.43345 56.2548 7.04178 56.2548 5.03963V0H54.7429V5.03963C54.7429 7.73473 55.8139 8.94534 58.5473 8.94534C61.1931 8.94534 62.3654 7.83607 62.3654 5.03963V0H60.8535ZM67.1284 8.81935V5.79557H69.7851C71.664 5.79557 72.6829 4.86434 72.6829 2.89779C72.6829 1.02162 71.7517 0 69.7851 0H65.6165V8.81935H67.1284ZM67.1284 4.28368V1.51189H69.7851C70.982 1.51189 71.171 1.71457 71.171 2.89779C71.171 4.0947 70.9711 4.28368 69.7851 4.28368H67.1284ZM75.934 7.30746V8.81935H77.4459V7.30746H75.934ZM82.3103 8.81935L82.9895 7.05548H86.9445L87.6265 8.81935H89.2397L85.838 0H84.0988L80.697 8.81935H82.3103ZM83.5702 5.54359L84.967 1.92821L86.3666 5.54359H83.5702ZM94 8.81935V0H92.4881V8.81935H94Z" fill="#1457DC"/>
</svg>
